<svg version="1.0" xmlns="http://www.w3.org/2000/svg" width="7000.000000pt" height="4500.000000pt" viewBox="0 0 6300.000000 4440.000000" preserveAspectRatio="xMidYMid meet">
  <g transform="translate(0.000000,4440.000000) scale(0.100000,-0.100000)" fill="#000000" stroke="none">
    <path d="M2840 29131 l-75 -6 -3 -437 -2 -438 -23 0 c-13 0 -27 3 -31 7 -4 4
-17 8 -29 9 -12 0 -47 6 -77 12 -30 5 -107 16 -170 22 -169 18 -507 2 -552
-26 -7 -5 -22 -10 -32 -11 -11 -2 -24 -7 -30 -12 -6 -5 -33 -12 -59 -16 -30
-5 -51 -14 -57 -26 -7 -11 -10 -1219 -10 -3373 l0 -3356 40 0 c23 0 51 7 63
14 12 8 54 18 92 22 39 4 77 12 85 19 8 7 35 15 60 19 25 3 79 9 121 15 43 5
85 13 95 18 11 5 35 8 54 6 19 -1 46 2 60 7 28 11 394 40 501 40 37 0 71 5 74
10 8 12 881 14 889 2 4 -7 424 -26 519 -23 179 5 301 -4 341 -23 32 -16 43
-17 70 -8 36 13 132 5 159 -13 12 -8 39 -11 75 -8 73 6 243 -22 258 -42 8 -11
30 -15 82 -15 81 0 222 -18 237 -30 6 -4 37 -11 70 -14 157 -15 181 -19 196
-32 10 -9 30 -12 57 -10 27 3 45 0 53 -10 7 -8 30 -14 60 -14 26 0 51 -5 54
-11 4 -6 19 -9 34 -7 14 1 48 -8 74 -20 55 -26 137 -30 137 -8 0 8 -10 18 -22
22 -13 4 -25 9 -28 13 -8 10 -73 33 -92 33 -9 0 -22 6 -29 14 -6 8 -20 14 -30
14 -10 0 -21 5 -24 10 -3 6 -17 10 -31 10 -13 0 -24 3 -24 8 0 4 -11 12 -25
19 -16 7 -25 8 -25 1 0 -7 -4 -7 -12 -1 -7 5 -29 16 -48 23 -19 7 -54 22 -78
32 -23 10 -57 21 -75 25 -17 3 -34 10 -37 14 -3 5 -16 10 -29 12 -12 2 -26 9
-30 15 -4 7 -22 14 -39 16 -44 6 -72 16 -72 25 0 5 -21 11 -48 15 -26 3 -65
15 -86 27 -21 11 -44 18 -51 15 -7 -2 -23 2 -34 11 -12 8 -31 13 -42 10 -12
-3 -24 2 -34 16 -12 17 -17 19 -27 9 -17 -17 -77 -15 -84 2 -3 8 -13 12 -24 9
-10 -3 -29 1 -41 8 -13 7 -35 14 -49 15 -43 2 -134 30 -138 43 -2 7 -16 9 -38
5 -43 -8 -84 2 -84 21 0 17 -41 20 -57 4 -14 -14 -63 -1 -63 17 0 16 -36 19
-45 4 -6 -10 -33 -6 -98 15 -20 7 -39 9 -42 5 -7 -12 -88 0 -100 15 -12 15
-48 19 -305 35 -102 6 -189 16 -195 21 -12 12 -1082 12 -1089 0 -3 -4 -45 -11
-93 -15 -223 -16 -350 -29 -368 -36 -28 -12 -166 -30 -225 -30 -33 0 -50 4
-50 13 -3 509 2 6062 6 6068 3 5 18 9 34 9 16 0 32 5 35 10 3 6 23 10 44 10
20 0 43 6 49 13 16 15 132 26 370 33 l182 6 0 -2884 c0 -2230 3 -2887 12
-2896 15 -15 124 -16 133 -2 9 14 881 13 907 -1 18 -10 132 -19 498 -38 91 -5
188 -15 215 -21 28 -6 71 -13 97 -15 26 -1 60 -10 76 -18 19 -9 35 -11 45 -5
11 5 29 3 54 -8 21 -9 56 -18 78 -19 22 -1 63 -7 90 -12 28 -6 77 -16 110 -23
33 -6 65 -15 70 -19 6 -4 30 -13 55 -21 25 -7 49 -17 55 -22 5 -4 16 -8 25 -8
9 0 34 -9 55 -20 25 -13 50 -19 68 -16 19 4 27 1 27 -9 0 -10 10 -15 29 -15
17 0 33 -4 36 -10 3 -5 21 -10 40 -10 19 0 38 -6 42 -14 4 -7 27 -16 51 -20
24 -3 57 -12 75 -20 47 -20 101 -41 109 -41 3 0 10 -3 14 -7 4 -5 18 -8 31 -8
13 0 26 -6 29 -14 3 -7 22 -16 43 -20 21 -3 44 -13 51 -21 7 -8 20 -15 30 -15
24 0 87 -27 95 -41 4 -5 13 -8 20 -6 6 3 24 -6 38 -19 14 -13 35 -24 47 -24
11 0 20 -4 20 -10 0 -5 9 -10 19 -10 11 0 26 -7 35 -15 8 -8 20 -15 27 -15 17
0 134 -58 197 -97 29 -18 55 -33 59 -33 3 0 20 -11 37 -24 17 -13 42 -27 56
-31 14 -4 55 -29 91 -56 65 -48 119 -64 119 -36 0 22 -128 129 -176 147 -13 5
-24 16 -24 25 0 8 -5 15 -11 15 -7 0 -44 24 -83 53 -39 29 -82 59 -96 66 -14
6 -55 36 -93 66 -37 30 -73 55 -81 55 -7 0 -19 6 -25 14 -6 8 -26 20 -44 27
-18 7 -41 23 -53 35 -11 12 -37 27 -56 33 -20 6 -44 21 -53 31 -10 11 -26 20
-36 20 -10 0 -26 11 -37 25 -13 16 -26 23 -36 19 -8 -3 -30 5 -48 18 -43 31
-77 48 -94 48 -8 0 -14 7 -14 15 0 9 -9 15 -25 15 -14 0 -25 5 -25 10 0 6 -11
10 -25 10 -16 0 -25 6 -25 15 0 9 -9 15 -25 15 -14 0 -25 3 -25 8 0 11 -51 32
-62 26 -5 -3 -17 0 -26 8 -9 8 -36 20 -60 28 -23 7 -47 19 -53 27 -6 7 -24 13
-40 13 -16 0 -29 5 -29 10 0 6 -12 10 -28 10 -15 0 -38 7 -50 16 -12 8 -22 12
-22 7 0 -4 -6 -1 -13 7 -8 11 -34 15 -87 16 -47 1 -86 8 -105 18 -16 9 -38 16
-47 16 -10 0 -18 5 -18 10 0 6 -10 10 -22 10 -39 0 -68 12 -68 26 0 8 -7 14
-15 14 -8 0 -15 -4 -15 -10 0 -17 -29 -11 -49 9 -15 15 -28 19 -54 14 -29 -4
-35 -2 -40 17 -5 18 -9 20 -26 11 -28 -15 -56 -14 -71 3 -7 9 -29 15 -53 15
-65 -1 -183 18 -219 35 -42 20 -113 35 -159 36 -20 0 -42 6 -48 14 -9 10 -42
16 -104 20 -51 2 -173 9 -272 15 -99 6 -291 12 -428 13 l-247 3 0 3067 c0
1687 3 3074 6 3082 7 18 98 23 109 6 3 -6 52 -10 111 -10 63 0 104 4 104 10 0
7 156 10 449 10 289 0 452 -4 456 -10 8 -12 52 -13 57 -1 2 4 50 2 108 -6 58
-8 150 -16 204 -18 73 -4 104 -9 117 -21 12 -11 24 -14 36 -8 10 4 49 8 88 9
57 1 71 4 73 18 3 12 -6 19 -28 24 -17 3 -34 12 -37 20 -3 8 -13 11 -24 8 -12
-4 -21 -1 -25 9 -4 10 -16 15 -34 14 -15 -1 -35 4 -44 11 -9 7 -22 11 -30 8
-7 -3 -22 0 -32 7 -11 7 -32 16 -49 19 -114 22 -140 32 -129 49 4 7 -7 8 -34
3 -25 -4 -42 -2 -47 4 -3 6 -20 11 -36 11 -41 0 -122 21 -131 33 -10 15 -97
38 -141 37 -25 -1 -39 4 -43 15 -5 11 -21 15 -64 15 -33 0 -62 5 -65 10 -3 6
-33 10 -65 10 -32 0 -61 4 -64 9 -3 4 -36 11 -73 15 -86 9 -253 32 -315 44
-53 10 -583 12 -698 3z m2217 -6807 c-3 -3 -12 -4 -19 -1 -8 3 -5 6 6 6 11 1
17 -2 13 -5z"/>
    <path d="M10688 29114 c-12 -13 -36 -17 -100 -17 -46 0 -86 -4 -89 -10 -4 -5
-35 -10 -70 -11 -35 -2 -77 -8 -94 -15 -16 -7 -48 -10 -69 -8 -26 4 -44 1 -53
-9 -8 -8 -34 -14 -57 -14 -24 0 -58 -7 -76 -16 -28 -15 -38 -15 -68 -4 -30 11
-37 10 -47 -3 -6 -9 -33 -17 -65 -20 -85 -9 -134 -19 -141 -28 -3 -5 -42 -15
-87 -21 -54 -8 -82 -16 -82 -25 0 -9 -15 -13 -44 -13 -25 0 -48 -4 -51 -10 -3
-5 -21 -10 -40 -10 -21 0 -35 -6 -39 -16 -4 -11 -14 -14 -29 -11 -12 3 -31 -1
-41 -9 -11 -8 -32 -14 -47 -14 -15 0 -31 -4 -34 -10 -3 -5 -17 -10 -30 -10
-13 0 -27 -4 -30 -10 -3 -5 -19 -10 -36 -10 -16 0 -29 -4 -29 -10 0 -5 -11
-10 -24 -10 -13 0 -29 -7 -36 -15 -7 -8 -25 -15 -41 -15 -16 0 -29 -4 -29 -10
0 -5 -11 -10 -25 -10 -18 0 -25 -5 -25 -20 0 -17 7 -20 50 -20 28 0 50 4 50 9
0 5 44 12 98 15 217 13 277 19 284 29 6 10 93 17 388 33 69 4 131 11 138 17
26 20 414 31 697 18 149 -6 307 -11 353 -11 l82 0 0 -3058 c0 -2375 3 -3061
12 -3070 9 -9 9 -15 -2 -27 -12 -11 -61 -15 -235 -18 -121 -2 -278 -10 -349
-17 -101 -11 -131 -11 -134 -2 -5 17 -33 15 -46 -3 -12 -17 -114 -22 -193 -10
-27 5 -43 3 -43 -3 0 -17 -62 -32 -126 -31 -74 2 -195 -11 -210 -22 -6 -5 -42
-14 -80 -20 -38 -6 -91 -15 -119 -21 -27 -5 -74 -9 -102 -8 -42 1 -53 -2 -53
-15 0 -11 -11 -15 -39 -15 -22 0 -43 -4 -46 -10 -3 -5 -21 -10 -39 -10 -19 0
-39 -7 -46 -15 -7 -8 -27 -15 -46 -15 -18 0 -36 -4 -39 -10 -3 -5 -17 -10 -31
-10 -14 0 -35 -6 -47 -14 -12 -8 -48 -18 -79 -21 -32 -4 -58 -11 -58 -16 0 -5
-16 -9 -35 -9 -26 0 -33 -3 -29 -15 5 -11 -1 -15 -25 -15 -17 0 -31 -4 -31
-10 0 -5 -11 -10 -25 -10 -13 0 -41 -11 -61 -25 -20 -14 -44 -25 -53 -25 -9 0
-34 -9 -56 -20 -22 -11 -47 -20 -57 -20 -9 0 -20 -4 -23 -10 -3 -5 -15 -10
-26 -10 -10 0 -19 -7 -19 -15 0 -8 -9 -15 -19 -15 -11 0 -23 -4 -26 -10 -3 -5
-17 -10 -29 -10 -13 0 -29 -7 -36 -15 -7 -8 -18 -15 -25 -15 -7 0 -18 -7 -25
-15 -7 -8 -23 -15 -36 -15 -13 0 -24 -4 -24 -10 0 -5 -16 -16 -35 -25 -19 -9
-39 -23 -46 -31 -6 -8 -18 -14 -25 -14 -8 0 -41 -18 -73 -40 -32 -22 -65 -40
-74 -40 -8 0 -17 -7 -21 -15 -3 -8 -14 -15 -25 -15 -10 0 -21 -6 -24 -14 -3
-8 -32 -27 -64 -44 -32 -16 -73 -43 -91 -60 -18 -17 -42 -34 -53 -37 -10 -4
-19 -11 -19 -16 0 -5 -5 -9 -11 -9 -6 0 -22 -9 -36 -20 -14 -11 -34 -20 -44
-20 -11 0 -19 -5 -19 -10 0 -12 -50 -59 -63 -60 -5 0 -27 -16 -49 -35 -22 -19
-43 -33 -47 -32 -3 1 -25 -16 -47 -38 -23 -22 -49 -46 -58 -53 -24 -19 -16
-46 15 -50 17 -2 37 6 57 22 16 15 34 26 40 26 5 0 15 7 22 15 7 8 36 26 66
40 30 14 54 29 54 34 0 5 16 12 35 15 19 4 35 11 35 16 0 14 62 41 82 34 10
-3 18 -14 18 -25 0 -10 5 -19 10 -19 6 0 10 -5 10 -10 0 -6 11 -28 24 -49 18
-29 22 -41 13 -50 -8 -8 -7 -11 7 -11 10 0 23 -14 32 -32 8 -18 23 -46 34 -63
10 -16 19 -37 19 -46 1 -20 83 -49 138 -49 23 0 59 8 78 17 34 16 36 20 32 53
-2 24 1 39 12 47 14 11 13 12 -8 13 -22 0 -50 24 -51 43 0 4 16 7 35 7 19 0
35 5 35 10 0 6 23 10 50 10 29 0 50 5 50 11 0 5 4 8 9 4 5 -3 12 -1 15 4 3 4
20 7 37 5 18 -2 39 1 47 8 14 12 66 21 187 34 33 3 74 12 90 19 17 7 89 17
160 20 72 4 136 13 144 19 14 11 64 16 296 34 61 4 117 12 124 16 8 5 51 8 97
7 46 -1 92 3 103 9 11 6 99 15 196 20 97 5 185 15 196 21 14 7 46 8 90 4 42
-4 74 -3 82 3 13 10 202 21 402 23 224 2 780 -13 800 -21 11 -5 74 -11 140
-14 235 -11 364 -23 378 -35 8 -6 39 -11 69 -10 29 1 64 -3 76 -10 12 -6 47
-12 78 -13 36 -1 58 -6 61 -15 3 -7 10 -10 16 -6 18 11 81 4 92 -10 5 -8 35
-17 65 -21 30 -4 62 -9 72 -10 9 -1 23 -8 32 -15 8 -7 25 -11 38 -9 l23 3 3
3354 c1 2471 -1 3357 -9 3367 -6 8 -24 14 -40 14 -15 0 -31 5 -34 10 -3 6 -13
10 -22 10 -8 0 -29 6 -46 14 -62 27 -101 36 -163 36 -36 0 -66 5 -70 11 -5 9
-44 10 -138 4 -72 -4 -169 -9 -215 -11 -47 -2 -98 -8 -114 -14 -17 -5 -47 -10
-67 -10 -21 0 -54 -7 -73 -15 -72 -30 -67 -59 -68 388 0 221 -3 420 -7 442
l-7 40 -305 3 c-219 2 -316 -1 -343 -9 -29 -10 -40 -10 -49 -1 -17 17 -51 15
-70 -4z m1300 -1059 c44 -5 62 -11 62 -21 0 -9 12 -14 36 -14 20 0 54 -5 75
-12 l39 -11 -2 -3051 -3 -3051 -27 -3 c-17 -2 -28 1 -28 9 0 7 -10 9 -25 7
-14 -3 -46 -1 -72 3 -25 5 -74 12 -107 15 -34 3 -66 10 -71 14 -10 9 -83 15
-311 28 -83 4 -137 12 -147 20 -12 10 -76 12 -304 9 -158 -2 -316 -7 -349 -11
-41 -5 -64 -4 -69 3 -8 15 -182 15 -187 0 -5 -14 -217 -32 -283 -24 -32 4 -73
0 -109 -9 -57 -15 -99 -13 -123 6 -7 5 -14 5 -18 -2 -3 -5 -32 -10 -64 -10
-31 0 -61 -4 -67 -10 -5 -5 -72 -14 -149 -21 -81 -6 -151 -17 -167 -25 -16 -9
-38 -12 -53 -8 -15 4 -34 0 -48 -8 -12 -8 -44 -18 -72 -22 -95 -12 -125 -18
-125 -26 0 -4 -24 -13 -52 -18 -91 -18 -113 -23 -128 -30 -8 -3 -28 -7 -45 -9
-16 -2 -31 -8 -33 -13 -2 -6 -19 -10 -37 -10 -19 0 -37 -4 -40 -10 -3 -5 -19
-10 -34 -10 -16 0 -34 -6 -40 -14 -6 -8 -24 -16 -39 -19 -58 -12 -87 -20 -92
-26 -8 -10 -74 -31 -96 -31 -11 0 -25 -5 -30 -10 -6 -6 -21 -13 -34 -15 -13
-2 -28 -9 -34 -15 -5 -5 -20 -10 -33 -10 -13 0 -23 -4 -23 -10 0 -5 -10 -10
-22 -10 -12 0 -29 -6 -37 -13 -13 -12 -102 -41 -149 -51 -7 -1 -18 -8 -24 -14
-7 -7 -22 -12 -35 -12 -13 0 -23 -4 -23 -10 0 -5 -9 -10 -20 -10 -11 0 -20 7
-20 15 0 8 -4 15 -10 15 -5 0 -17 17 -26 38 -10 20 -26 49 -36 64 -10 14 -18
33 -18 41 0 8 -7 17 -15 21 -8 3 -12 12 -9 20 3 9 12 12 21 9 10 -4 14 -2 10
4 -8 12 34 43 58 43 8 0 15 5 15 10 0 6 8 10 19 10 10 0 24 6 30 14 6 8 31 17
55 20 25 4 47 13 50 21 3 8 16 15 30 15 14 0 28 5 31 10 3 6 17 10 31 10 15 0
24 6 24 15 0 10 10 15 29 15 17 0 33 5 36 10 3 6 15 10 25 10 11 0 35 9 55 20
20 11 46 20 60 20 13 0 27 5 30 10 3 6 19 10 34 10 16 0 34 7 41 15 7 8 25 15
41 15 15 0 31 5 34 10 3 6 19 10 34 10 16 0 34 6 40 14 7 8 20 15 29 14 22 0
200 47 209 55 3 4 21 7 39 7 18 0 36 5 39 10 3 6 28 10 54 10 31 0 53 5 61 15
7 8 23 15 36 15 13 0 43 4 66 9 71 16 152 31 178 34 14 1 31 6 38 11 7 4 16 5
19 2 3 -3 11 -2 17 3 6 5 67 13 136 17 82 5 129 12 138 21 7 7 33 13 57 13 24
0 71 7 105 16 45 11 82 14 132 9 52 -5 72 -4 78 5 7 12 226 33 242 24 11 -7
184 -7 195 -1 13 8 67 8 428 -1 176 -4 328 -6 338 -4 16 4 17 144 15 2889 l-3
2884 230 -5 c127 -3 258 -8 293 -11z m-1268 -6291 c0 -8 -4 -12 -10 -9 -5 3
-10 10 -10 16 0 5 5 9 10 9 6 0 10 -7 10 -16z"/>
    <path d="M5076 28742 c-11 -18 5 -42 29 -42 22 0 53 25 43 35 -11 11 -66 16
-72 7z"/>
    <path d="M6730 28620 c-14 -4 -49 -8 -78 -9 -29 -1 -63 -6 -75 -13 -12 -6 -40
-13 -62 -15 -22 -2 -53 -8 -69 -13 -16 -6 -44 -10 -62 -10 -18 0 -36 -4 -39
-10 -3 -5 -19 -10 -35 -10 -16 0 -31 -4 -34 -9 -5 -8 -19 -11 -113 -27 -21 -4
-42 -13 -46 -20 -4 -8 -19 -14 -32 -14 -13 0 -27 -4 -30 -10 -3 -5 -16 -10
-29 -10 -12 0 -27 -5 -32 -10 -6 -6 -21 -13 -34 -15 -13 -2 -28 -9 -34 -15 -5
-5 -19 -10 -31 -10 -11 0 -31 -9 -45 -20 -14 -11 -31 -20 -38 -20 -11 0 -36
-11 -72 -32 -8 -5 -23 -11 -32 -14 -10 -4 -18 -10 -18 -15 0 -5 -11 -9 -25 -9
-16 0 -25 -6 -25 -15 0 -8 -3 -14 -7 -13 -16 5 -107 -37 -131 -59 -14 -13 -33
-23 -43 -23 -11 0 -19 -5 -19 -11 0 -15 -31 -38 -51 -39 -9 0 -19 -6 -22 -13
-2 -7 -23 -22 -46 -32 -22 -11 -41 -23 -41 -27 0 -14 -41 -49 -50 -43 -4 3
-17 -6 -28 -20 -11 -14 -23 -25 -27 -25 -15 0 -164 -132 -259 -229 -54 -56
-103 -101 -107 -101 -5 0 -9 -3 -9 -7 0 -5 -23 -33 -51 -63 -27 -30 -64 -74
-81 -97 -17 -24 -35 -43 -40 -43 -4 0 -8 -4 -8 -10 0 -11 -90 -133 -102 -138
-5 -2 -8 -10 -8 -19 0 -8 -6 -21 -12 -28 -28 -31 -38 -44 -38 -50 0 -4 -13
-26 -30 -50 -16 -24 -30 -48 -30 -54 0 -6 -13 -30 -30 -53 -16 -22 -30 -48
-30 -57 0 -9 -9 -27 -20 -41 -11 -14 -20 -29 -20 -35 0 -9 -52 -121 -71 -155
-5 -8 -12 -22 -15 -30 -3 -8 -10 -23 -15 -32 -5 -10 -9 -27 -9 -38 0 -12 -7
-20 -16 -20 -12 0 -14 -7 -9 -29 3 -16 2 -32 -3 -35 -6 -3 -15 -28 -22 -56 -7
-28 -16 -52 -21 -55 -4 -3 -6 -12 -2 -20 3 -8 1 -15 -5 -15 -5 0 -15 -34 -23
-77 -7 -42 -19 -82 -26 -89 -7 -7 -13 -31 -13 -53 0 -22 -4 -43 -10 -46 -5 -3
-10 -30 -10 -59 0 -36 -5 -58 -15 -66 -11 -9 -15 -31 -14 -79 1 -36 -4 -142
-10 -235 -9 -129 -9 -214 0 -365 6 -108 12 -222 13 -253 0 -31 7 -63 14 -69 7
-8 12 -38 12 -70 0 -32 4 -61 10 -64 6 -3 10 -26 10 -51 0 -24 4 -44 10 -44 5
0 12 -17 15 -37 8 -49 24 -110 40 -148 7 -16 16 -46 20 -65 7 -33 26 -85 46
-122 5 -10 9 -25 9 -33 0 -8 4 -23 9 -33 5 -9 17 -35 27 -57 25 -59 84 -187
96 -209 43 -80 62 -111 70 -114 4 -2 8 -10 8 -19 0 -8 14 -34 30 -58 17 -24
30 -47 30 -52 0 -4 14 -26 30 -47 17 -22 30 -44 30 -50 0 -6 9 -17 20 -24 11
-7 20 -18 20 -26 0 -7 16 -31 35 -52 19 -21 35 -40 35 -43 0 -4 17 -24 37 -46
19 -22 43 -51 52 -65 30 -47 136 -160 149 -160 5 0 12 -9 15 -20 3 -11 13 -20
22 -20 9 0 13 -4 10 -10 -3 -5 1 -10 9 -10 9 0 16 -5 16 -11 0 -14 25 -39 39
-39 6 0 11 -5 11 -11 0 -12 25 -39 37 -39 5 0 15 -9 23 -20 8 -11 20 -20 26
-20 7 0 21 -11 32 -25 11 -14 23 -25 26 -25 4 0 17 -9 29 -21 12 -11 34 -27
48 -34 14 -8 40 -27 58 -44 18 -17 37 -31 42 -31 5 0 9 -7 9 -15 0 -8 8 -15
18 -15 11 0 38 -13 60 -30 23 -16 45 -30 48 -30 4 0 22 -11 40 -25 18 -14 37
-25 43 -25 6 0 11 -4 11 -10 0 -5 9 -10 20 -10 11 0 23 -7 26 -15 4 -8 11 -15
18 -15 6 0 47 -18 91 -40 44 -22 85 -40 92 -40 7 0 13 -7 13 -15 0 -9 9 -15
24 -15 14 0 28 -4 31 -10 3 -5 14 -10 24 -10 9 0 36 -9 59 -20 22 -11 48 -20
56 -20 8 0 18 -4 21 -10 3 -5 19 -10 34 -10 16 0 34 -7 41 -15 7 -8 25 -15 41
-15 16 0 29 -4 29 -10 0 -5 11 -10 24 -10 14 0 31 -6 38 -14 8 -7 45 -17 83
-21 39 -4 82 -13 96 -21 14 -7 35 -13 45 -13 10 0 37 -4 59 -9 65 -16 182 -32
234 -32 27 0 65 -7 84 -15 28 -12 82 -15 241 -15 172 0 205 2 210 15 6 16 53
20 71 7 6 -4 19 -27 30 -52 10 -25 27 -57 37 -72 10 -14 18 -33 18 -42 0 -9 3
-16 8 -16 8 0 32 -49 32 -67 0 -7 4 -13 9 -13 9 0 23 -33 25 -58 1 -7 6 -16
12 -20 6 -4 13 -15 17 -24 10 -28 52 -49 110 -55 45 -5 64 -1 101 17 27 13 46
29 46 38 0 19 -81 185 -92 190 -5 2 -8 10 -8 17 0 12 -17 51 -42 95 -4 8 -13
26 -19 40 -6 14 -15 33 -20 43 -8 16 -5 17 31 11 23 -4 40 -3 40 3 0 16 44 31
74 26 17 -4 31 -1 36 7 4 6 28 12 54 12 25 1 46 4 46 8 0 13 51 21 65 10 9 -8
14 -5 18 10 4 14 13 20 35 20 17 0 34 5 38 11 3 6 19 9 34 5 18 -3 30 -1 33 7
3 7 21 14 42 15 20 2 46 12 58 22 11 11 29 20 38 20 10 0 20 4 23 9 3 5 20 11
38 14 79 13 104 20 111 33 4 8 17 14 27 14 11 0 20 5 20 10 0 6 9 10 19 10 11
0 23 5 26 10 3 6 25 19 48 31 23 12 69 36 102 55 33 18 75 41 93 51 17 9 32
20 32 24 0 4 19 17 42 29 24 12 64 40 89 61 26 21 50 39 53 39 10 0 142 106
201 162 94 87 107 99 131 115 13 8 24 20 24 25 0 6 35 47 79 92 111 114 201
222 201 240 0 9 6 16 13 16 11 1 93 115 128 178 8 16 29 51 46 78 17 27 34 59
38 72 3 12 13 22 21 22 8 0 14 10 15 23 0 12 9 36 20 52 11 17 25 42 31 58 7
15 16 27 20 27 4 0 5 7 2 15 -4 9 0 15 10 15 11 0 16 9 16 29 0 17 5 33 10 36
6 3 10 13 10 22 0 16 30 85 40 93 4 3 10 23 13 44 4 22 12 43 18 47 6 4 9 11
5 17 -3 6 -2 13 4 17 5 3 10 17 10 30 0 13 5 27 10 30 6 3 10 17 10 31 0 14 9
46 21 71 12 26 25 72 29 104 5 31 13 66 19 77 6 12 11 32 11 46 0 14 4 26 9
26 5 0 8 24 8 53 0 28 5 90 12 137 6 47 13 99 14 117 1 17 5 35 10 39 9 9 10
468 1 477 -4 4 -8 23 -9 44 -1 21 -8 81 -15 133 -6 52 -13 116 -14 142 0 26
-5 50 -9 54 -4 4 -7 20 -7 35 0 15 -4 30 -9 33 -5 4 -12 30 -16 59 -3 28 -10
61 -14 72 -5 11 -17 47 -26 80 -10 33 -22 70 -26 83 -5 13 -6 34 -3 48 4 14 2
24 -5 24 -14 0 -38 47 -46 93 -4 20 -11 37 -15 37 -4 0 -15 24 -25 53 -14 44
-62 148 -102 222 -6 11 -19 36 -28 55 -9 19 -29 56 -45 83 -16 26 -26 47 -23
47 4 0 -7 15 -23 33 -34 36 -64 81 -64 96 0 6 -10 21 -22 34 -13 14 -39 46
-58 73 -19 27 -41 53 -47 57 -7 4 -13 13 -13 19 0 41 -458 504 -522 527 -6 2
-18 11 -28 20 -39 37 -184 141 -195 141 -7 0 -24 14 -60 48 -13 12 -33 22 -45
22 -11 0 -20 7 -20 15 0 14 -12 20 -34 16 -5 -1 -20 8 -33 21 -14 13 -28 22
-31 21 -10 -3 -156 68 -163 80 -4 5 -20 10 -37 11 -17 1 -39 9 -49 18 -11 10
-39 20 -64 23 -55 7 -111 25 -124 41 -6 6 -28 14 -50 17 -86 12 -108 20 -112
38 -6 22 -14 24 -30 8 -8 -8 -24 -6 -57 5 -26 9 -53 16 -60 16 -8 0 -19 6 -25
14 -8 10 -23 13 -45 9 -22 -3 -38 0 -48 11 -10 9 -32 15 -59 14 -58 -2 -260
28 -293 43 -20 9 -29 9 -40 0 -12 -10 -27 -10 -66 -2 -58 13 -511 13 -550 1z
m725 -325 c142 -17 408 -71 447 -91 15 -8 33 -14 40 -14 25 0 178 -52 178 -61
0 -5 7 -6 15 -3 8 4 15 1 15 -5 0 -6 6 -11 13 -11 7 0 37 -16 67 -35 30 -19
63 -35 73 -35 10 0 31 -9 47 -20 15 -11 63 -38 106 -61 114 -60 214 -125 313
-201 27 -21 53 -38 58 -38 4 0 14 -9 21 -20 7 -11 18 -20 26 -20 7 0 80 -64
161 -142 130 -125 186 -186 265 -288 11 -14 42 -53 70 -87 27 -34 50 -67 50
-73 0 -5 4 -10 8 -10 7 0 58 -81 107 -169 11 -20 30 -52 42 -71 13 -19 23 -43
23 -52 0 -10 3 -18 8 -18 4 0 18 -24 31 -52 13 -29 35 -78 49 -108 33 -74 92
-229 94 -250 0 -3 4 -14 8 -25 4 -11 13 -47 21 -80 7 -33 18 -69 24 -80 7 -11
18 -60 25 -110 7 -49 17 -108 22 -130 41 -172 41 -705 -1 -865 -5 -19 -17 -79
-26 -133 -10 -53 -21 -100 -26 -103 -5 -3 -9 -17 -9 -31 0 -29 -73 -254 -95
-295 -8 -14 -15 -31 -15 -38 0 -13 -128 -272 -170 -345 -16 -27 -39 -68 -51
-90 -21 -38 -102 -153 -133 -187 -9 -10 -16 -22 -16 -26 0 -38 -490 -522 -528
-522 -5 0 -16 -7 -23 -16 -8 -9 -30 -27 -49 -39 -19 -13 -46 -32 -59 -44 -13
-11 -30 -21 -38 -21 -7 0 -13 -4 -13 -9 0 -5 -8 -11 -17 -15 -10 -3 -38 -19
-63 -35 -83 -54 -319 -174 -363 -185 -15 -4 -36 -15 -47 -26 -11 -11 -28 -20
-38 -20 -10 0 -22 -4 -28 -9 -10 -9 -168 -59 -274 -87 -103 -26 -220 -46 -380
-65 -154 -18 -497 -10 -645 16 -44 8 -127 21 -185 30 -58 9 -109 20 -115 24
-5 5 -29 11 -53 15 -23 3 -62 13 -85 22 -23 8 -49 16 -57 18 -36 9 -149 49
-187 67 -24 10 -51 19 -61 19 -10 0 -23 5 -28 10 -6 6 -77 44 -160 86 -202
104 -200 102 -214 119 -7 8 -17 15 -22 15 -5 0 -47 29 -93 65 -47 36 -88 65
-91 65 -25 0 -269 226 -388 359 -151 170 -251 308 -358 496 -39 70 -134 265
-143 295 -4 14 -18 49 -31 78 -13 29 -24 58 -24 65 0 7 -7 24 -14 39 -8 15
-24 67 -36 115 -11 49 -29 117 -39 153 -11 36 -22 94 -26 130 -4 36 -10 69
-15 75 -4 5 -13 82 -20 169 -13 161 -8 461 10 576 26 170 51 288 84 405 15 50
28 97 30 105 1 8 8 29 14 45 7 17 26 66 43 110 17 44 41 103 55 130 13 28 31
66 39 85 44 103 197 353 274 445 22 27 41 53 41 57 0 28 367 390 485 479 55
42 110 81 122 87 12 7 28 18 35 24 17 15 31 25 123 79 39 22 81 49 95 58 31
22 122 65 133 63 4 -1 7 3 7 8 0 6 5 10 11 10 11 0 30 8 132 54 32 14 64 26
73 26 8 0 25 6 37 14 12 7 54 22 92 32 39 10 81 24 95 31 14 7 33 13 42 13 21
0 104 19 136 31 12 5 78 16 145 25 340 44 573 53 772 29z"/>
    <path d="M5623 27289 l-53 -20 0 -87 c1 -294 145 -494 420 -581 114 -36 245
-52 486 -58 l232 -6 -4 -36 c-2 -20 -20 -236 -39 -481 -86 -1097 -185 -2349
-189 -2391 -5 -44 -3 -47 22 -52 85 -16 913 -119 918 -114 5 5 -91 1549 -175
2827 -10 151 -17 276 -16 277 4 6 194 43 305 60 170 26 594 24 775 -5 72 -11
131 -20 132 -19 3 4 43 290 43 312 0 21 -9 27 -62 43 -121 38 -207 47 -418 47
-233 0 -309 -7 -795 -75 -516 -72 -549 -75 -800 -75 -193 0 -242 3 -305 19
-207 52 -321 147 -371 307 -10 33 -19 76 -19 95 0 41 -11 42 -87 13z m1416
-1543 c36 -19 61 -72 61 -130 0 -102 -48 -150 -150 -150 -101 0 -150 48 -150
148 0 78 32 127 95 146 38 12 107 5 144 -14z m10 -599 c53 -35 85 -96 85 -163
1 -149 -167 -240 -292 -160 -59 37 -97 117 -88 185 19 141 178 215 295 138z
m-20 -691 c55 -29 78 -127 47 -201 -42 -99 -224 -102 -273 -5 -17 33 -16 113
1 155 29 68 142 94 225 51z"/>
    <path d="M6981 23253 c-15 -11 -14 -12 2 -13 13 0 16 -6 12 -23 -3 -12 2 -40
11 -62 10 -22 18 -42 19 -45 5 -16 31 -73 72 -158 26 -53 47 -101 48 -107 3
-72 136 -110 225 -65 44 22 48 39 24 85 -14 27 -14 31 0 41 22 16 20 27 -4 19
-16 -5 -22 0 -30 22 -6 15 -13 35 -17 43 -3 8 -7 17 -8 20 -1 3 -11 25 -23 50
-12 25 -22 50 -22 56 0 6 -7 17 -15 24 -8 7 -17 26 -21 44 -3 17 -19 41 -34
53 -24 20 -42 23 -125 26 -66 1 -103 -2 -114 -10z"/>
    <path d="M17750 27976 l-95 -32 3 -110 c11 -458 222 -729 656 -839 163 -41
321 -57 638 -62 l297 -6 -5 -46 c-3 -25 -45 -557 -95 -1181 -91 -1162 -174
-2205 -209 -2640 -11 -134 -17 -247 -12 -250 7 -7 1260 -171 1298 -170 19 0
21 5 17 48 -2 26 -51 785 -109 1687 -57 902 -118 1853 -135 2114 -16 260 -28
476 -25 479 10 9 286 61 451 84 140 20 202 23 495 23 295 -1 355 -3 500 -24
91 -12 183 -25 205 -28 l41 -5 28 208 c15 115 30 218 33 230 5 25 -17 36 -145
69 -174 46 -310 58 -592 52 -295 -6 -475 -24 -1025 -102 -646 -92 -878 -115
-1157 -115 -381 0 -614 65 -775 214 -97 90 -151 199 -175 355 l-13 79 -95 -32z
m1946 -2145 c53 -24 83 -67 96 -138 22 -121 -27 -227 -117 -252 -94 -26 -201
-5 -252 50 -32 36 -43 73 -43 149 0 106 27 155 105 191 54 25 156 25 211 0z
m-39 -806 c136 -41 218 -193 178 -331 -21 -73 -63 -127 -129 -164 -103 -59
-249 -33 -329 60 -96 112 -88 260 18 367 77 76 160 98 262 68z m-27 -975 c110
-21 156 -92 148 -224 -5 -83 -19 -110 -74 -153 -34 -25 -44 -28 -123 -28 -142
0 -207 51 -218 172 -12 133 46 216 167 236 43 7 46 7 100 -3z"/>
    <path d="M43218 28004 c-3 -3 -199 -99 -434 -213 -236 -114 -703 -342 -1039
-506 -335 -164 -686 -335 -780 -380 -350 -170 -881 -428 -1209 -589 -186 -91
-340 -166 -341 -166 -2 0 -174 -83 -382 -186 -208 -102 -404 -197 -435 -211
-32 -14 -58 -29 -58 -33 0 -4 172 -85 383 -180 210 -94 425 -191 477 -215 52
-24 212 -96 355 -160 441 -198 545 -245 677 -306 l128 -59 402 170 c221 94
403 168 405 166 2 -2 -119 -92 -269 -201 -150 -109 -303 -221 -341 -249 l-67
-51 2 -654 3 -654 140 -28 c323 -64 597 -161 860 -304 66 -36 122 -65 125 -65
9 0 97 192 235 515 24 55 73 168 110 250 37 83 89 202 117 265 81 184 117 268
252 575 251 571 309 702 361 820 96 214 125 286 125 305 0 31 -124 268 -198
380 -39 58 -93 131 -121 162 -107 118 -281 228 -410 258 -73 17 -263 7 -361
-19 -41 -11 -75 -19 -76 -18 -1 1 -4 11 -8 23 -6 18 5 26 91 66 123 58 251
100 390 129 160 34 370 33 509 -3 296 -76 518 -239 756 -556 177 -235 297
-468 503 -977 42 -104 106 -262 142 -350 83 -203 190 -467 308 -760 51 -126
118 -291 148 -365 30 -74 81 -198 112 -275 31 -77 72 -173 90 -212 l34 -73 73
32 c216 92 410 151 648 198 l135 26 3 655 2 654 -67 51 c-38 28 -191 140 -341
249 -150 109 -271 200 -269 202 3 2 40 -12 83 -31 286 -124 711 -299 724 -299
14 1 151 62 484 214 71 33 133 56 136 52 4 -5 17 -73 29 -153 20 -133 38 -249
77 -481 21 -130 19 -150 -16 -174 -194 -130 -261 -658 -121 -951 66 -137 137
-198 233 -198 73 -1 126 34 185 121 124 185 156 485 82 761 -38 142 -107 245
-194 287 -40 20 -54 32 -51 44 3 9 19 97 35 196 25 150 50 296 118 694 7 38
-4 32 373 201 444 198 650 293 650 299 0 3 -127 68 -283 143 -265 129 -765
373 -1622 790 -203 100 -442 216 -530 258 -88 43 -259 126 -380 185 -121 59
-305 149 -410 200 -104 51 -381 186 -615 300 -234 114 -470 229 -525 255 -55
26 -151 73 -214 104 -110 54 -132 62 -143 50z"/>
    <path d="M47171 27976 l-93 -31 5 -145 c5 -168 26 -261 86 -385 125 -262 373
-405 796 -461 91 -12 215 -18 415 -19 l285 -2 -3 -54 c-3 -71 -41 -561 -147
-1884 -19 -236 -50 -632 -70 -880 -19 -247 -51 -641 -70 -875 -18 -234 -31
-427 -29 -430 3 -2 134 -21 292 -42 807 -105 1014 -130 1019 -124 7 7 4 52
-82 1396 -30 465 -59 919 -65 1010 -17 271 -99 1541 -111 1733 -10 148 -10
180 1 187 12 8 192 44 345 69 155 27 384 43 585 43 225 1 356 -9 603 -43 82
-12 150 -19 151 -17 2 1 15 98 30 213 15 116 30 217 32 227 4 13 -12 22 -73
42 -189 61 -367 81 -678 73 -292 -8 -516 -31 -1075 -112 -1023 -149 -1427
-146 -1735 13 -90 47 -201 155 -243 238 -33 65 -58 152 -70 238 l-7 52 -94
-30z m1949 -2148 c56 -29 77 -59 92 -130 14 -67 1 -156 -30 -198 -44 -61 -165
-88 -264 -58 -126 38 -169 241 -72 348 40 44 77 58 164 59 50 1 76 -4 110 -21z
m-34 -805 c70 -24 147 -103 168 -173 9 -30 16 -68 16 -85 0 -140 -133 -275
-270 -275 -87 0 -187 62 -238 148 -23 41 -27 58 -27 127 0 96 21 142 90 203
78 69 166 87 261 55z m-10 -978 c86 -25 124 -88 124 -202 0 -132 -56 -193
-186 -201 -88 -6 -150 14 -188 59 -72 85 -52 271 34 322 60 36 142 44 216 22z"/>
    <path d="M53092 27775 c-62 -12 -115 -24 -117 -27 -3 -3 13 -81 35 -173 23
-92 39 -169 37 -171 -1 -2 -30 -15 -62 -30 -120 -52 -305 -169 -451 -285 -34
-27 -64 -49 -68 -49 -3 0 -58 66 -122 148 -65 81 -121 151 -125 155 -6 8 -79
-43 -171 -118 l-27 -22 129 -174 c71 -96 130 -177 130 -181 0 -4 -25 -36 -56
-72 -68 -80 -198 -262 -250 -350 -22 -36 -43 -66 -49 -65 -5 0 -75 47 -155
104 -80 58 -148 105 -152 105 -8 0 -158 -207 -158 -218 0 -5 79 -62 176 -126
137 -92 174 -122 169 -135 -95 -243 -169 -537 -198 -794 -8 -64 -16 -119 -19
-122 -2 -3 -102 -18 -222 -34 -119 -16 -219 -30 -221 -33 -2 -2 10 -59 27
-126 37 -144 14 -134 228 -97 207 36 186 46 194 -91 16 -280 84 -564 191 -800
19 -42 34 -78 33 -79 -2 -2 -79 -47 -173 -100 -93 -54 -171 -98 -171 -99 -3
-2 105 -179 114 -188 6 -6 77 27 183 83 l173 92 15 -24 c77 -116 279 -329 384
-404 31 -22 57 -44 57 -50 0 -5 -39 -75 -85 -155 l-85 -145 27 -23 c16 -12 62
-49 104 -82 l77 -60 97 163 c54 89 99 164 101 165 1 2 56 -17 121 -41 65 -25
169 -59 232 -76 62 -17 116 -32 118 -35 2 -2 -18 -86 -46 -187 -28 -101 -48
-186 -43 -190 6 -5 231 -69 244 -69 3 0 22 90 43 200 21 110 41 204 44 208 3
5 49 6 101 2 179 -14 372 13 554 75 42 15 78 26 80 24 2 -2 38 -83 81 -179 43
-96 79 -176 80 -178 2 -2 55 27 118 64 l115 67 -18 46 c-10 25 -44 106 -74
180 -31 74 -55 135 -54 135 15 8 135 100 177 135 60 52 181 192 230 267 l33
51 155 -69 c85 -38 156 -68 158 -66 14 16 93 188 87 191 -4 3 -70 33 -147 67
-77 34 -143 65 -147 69 -4 3 8 51 27 106 35 104 65 274 65 364 l0 51 135 0
135 0 0 100 0 100 -143 0 -144 0 -12 58 c-20 88 -69 231 -99 289 l-27 51 -130
-52 -130 -52 -2 -49 c-21 -437 -297 -754 -739 -851 -109 -24 -366 -24 -488 0
-193 37 -372 114 -508 216 -143 108 -298 298 -386 475 -196 393 -232 938 -91
1375 41 129 135 315 217 430 85 120 254 291 355 359 151 101 328 169 502 193
125 17 341 5 457 -25 300 -78 553 -285 773 -630 9 -14 27 -9 140 39 71 31 132
57 134 60 7 6 -26 105 -74 226 -31 78 -40 110 -32 116 7 5 72 44 144 86 l133
78 -37 56 c-20 32 -53 83 -72 114 -20 32 -41 56 -48 54 -6 -3 -64 -41 -128
-85 -64 -45 -119 -81 -123 -81 -4 1 -25 29 -47 63 -50 78 -231 262 -307 312
-52 34 -56 39 -48 63 31 95 100 333 100 345 0 17 -208 74 -220 60 -4 -4 -24
-80 -45 -168 -20 -88 -38 -161 -39 -162 -1 -1 -35 7 -76 17 -128 34 -293 45
-449 32 -76 -7 -163 -17 -195 -24 -44 -8 -60 -8 -65 0 -4 7 -16 80 -26 162
-21 174 -1 159 -173 125z"/>
    <path d="M26560 27663 c1 -134 197 -5143 201 -5147 5 -5 530 82 537 89 2 2 26
417 53 921 28 505 51 920 53 922 2 2 73 23 157 46 85 24 164 46 175 50 19 6
82 -72 532 -662 281 -367 554 -718 607 -780 543 -631 1149 -669 1487 -91 45
76 74 137 67 143 -2 2 -24 13 -48 26 l-43 22 -77 -76 c-87 -87 -96 -94 -176
-134 -83 -42 -173 -57 -256 -42 -162 29 -377 175 -503 340 -38 49 -973 1530
-982 1555 -2 6 29 27 70 49 l74 38 159 -120 160 -120 84 111 c46 61 85 114 87
118 3 8 -59 67 -185 178 -46 40 -83 76 -83 81 0 5 25 43 55 85 62 87 135 228
161 310 10 30 21 55 25 55 5 0 81 -27 171 -60 89 -33 167 -60 172 -60 14 0
126 243 117 252 -3 4 -89 36 -191 72 -102 35 -192 67 -200 70 -13 5 -15 35
-15 184 0 165 -2 183 -29 275 -16 54 -27 99 -25 101 2 2 84 56 182 120 97 64
177 119 177 122 0 6 -77 95 -161 188 l-27 29 -143 -102 -144 -101 -20 27 c-74
104 -253 248 -359 288 -25 10 -46 22 -46 26 0 5 36 81 80 169 44 88 80 165 80
171 0 6 -55 37 -122 69 l-123 59 -90 -185 c-49 -101 -95 -184 -101 -184 -7 0
-99 21 -203 46 -174 42 -191 48 -191 68 0 11 7 96 16 189 9 92 15 169 13 172
-3 2 -67 9 -143 15 -102 8 -141 8 -146 0 -4 -6 -17 -83 -30 -170 -13 -87 -26
-163 -29 -168 -6 -8 -536 29 -545 39 -3 3 -8 87 -12 187 l-7 182 -149 0 -148
0 0 -57z m1227 -743 c92 -25 211 -64 220 -74 2 -1 156 -690 299 -1331 24 -110
47 -207 50 -217 6 -21 -125 -136 -251 -220 -168 -112 -495 -255 -649 -284
l-36 -6 5 58 c5 49 76 1138 127 1923 l12 193 56 -6 c30 -4 106 -20 167 -36z"/>
    <path d="M56405 27634 c-170 -18 -313 -33 -316 -33 -3 -1 -9 -65 -13 -143 -4
-79 -9 -186 -12 -238 -3 -52 -32 -700 -64 -1440 -91 -2045 -129 -2883 -136
-3015 l-6 -120 558 -88 c306 -48 559 -85 562 -82 4 4 -21 789 -33 1045 -13
252 -46 1252 -42 1263 2 8 157 25 483 54 263 23 497 42 519 42 l41 1 43 -627
c23 -346 45 -650 47 -678 2 -27 18 -248 35 -490 17 -242 32 -442 34 -443 2 -2
221 10 487 27 266 17 492 31 504 31 19 0 20 3 13 68 -44 391 -51 476 -40 480
6 2 11 8 11 13 0 4 -6 6 -13 3 -10 -4 -16 24 -26 118 -41 409 -126 1140 -156
1358 -48 340 -52 477 -26 755 30 324 147 1550 176 1845 14 140 25 258 25 262
0 13 -66 17 -414 22 l-349 5 6 -262 c4 -144 14 -542 23 -885 10 -342 15 -624
13 -627 -3 -2 -245 7 -539 20 -294 13 -591 27 -660 30 -69 3 -162 8 -207 11
l-82 6 -5 51 c-3 29 -20 270 -37 537 -68 1064 -74 1153 -84 1156 -5 1 -149
-13 -320 -32z m1227 -2034 c402 -27 732 -51 733 -52 1 -2 5 -47 9 -100 7 -93
6 -98 -12 -98 -11 0 -342 -36 -735 -80 -394 -44 -722 -80 -730 -80 -17 0 -24
65 -31 313 -4 139 -3 147 15 147 11 0 348 -22 751 -50z m1328 -2399 c-8 -5
-26 -11 -40 -15 -21 -5 -20 -3 5 9 32 15 60 20 35 6z m-125 -75 c-11 -8 -24
-12 -29 -8 -5 3 -1 9 10 13 31 12 39 10 19 -5z m-165 -100 c0 -2 -7 -7 -16
-10 -8 -3 -12 -2 -9 4 6 10 25 14 25 6z m-70 -40 c0 -2 -7 -7 -16 -10 -8 -3
-12 -2 -9 4 6 10 25 14 25 6z"/>
    <path d="M34616 27640 c-3 -8 -51 -240 -106 -515 -137 -675 -201 -990 -320
-1575 -56 -272 -130 -639 -166 -815 -73 -361 -116 -542 -179 -760 -205 -707
-521 -1258 -908 -1581 -51 -43 -94 -81 -95 -86 -5 -11 105 -238 115 -238 17 0
260 190 354 277 417 382 698 851 924 1542 66 204 137 461 190 686 48 209 41
195 72 156 14 -18 94 -115 177 -215 137 -164 668 -806 971 -1174 66 -80 125
-147 130 -149 6 -2 62 84 125 189 63 106 287 483 499 838 211 355 425 715 476
800 351 591 430 721 433 712 2 -7 -93 -2752 -110 -3192 l-3 -65 40 4 c155 15
1406 158 1408 162 2 2 -31 355 -74 784 -43 429 -96 965 -118 1190 -76 762
-231 2328 -260 2623 -16 162 -31 296 -34 298 -5 6 -429 24 -558 24 l-96 0
-225 -457 c-124 -252 -349 -708 -499 -1013 -150 -305 -355 -719 -454 -919
l-181 -364 -56 104 c-51 96 -1181 2209 -1379 2579 -49 92 -90 158 -93 150z
m329 -1870 c98 -168 237 -408 310 -535 160 -277 316 -547 458 -791 l105 -182
-85 -151 c-47 -83 -88 -151 -91 -151 -4 1 -41 47 -84 103 -97 130 -207 275
-424 558 -162 212 -230 301 -439 576 l-85 111 10 47 c6 25 37 188 70 363 68
359 70 366 75 361 2 -2 83 -141 180 -309z m3082 -1022 c-10 -346 -45 -668
-112 -1024 -30 -159 -91 -434 -98 -440 -1 -2 -65 7 -142 20 -126 20 -140 24
-138 41 0 11 28 99 61 195 89 258 160 538 207 815 22 127 55 419 55 485 0 30
4 60 8 66 7 11 127 61 151 63 12 1 13 -34 8 -221z"/>
    <path d="M13675 27580 c-60 -27 -114 -51 -120 -53 -5 -2 3 -30 17 -63 74 -165
107 -339 115 -604 9 -279 -12 -573 -87 -1250 -115 -1031 -116 -1443 -5 -1886
94 -374 269 -642 537 -821 258 -171 568 -255 1008 -269 941 -32 1551 319 1824
1049 125 333 168 705 149 1278 -29 855 -76 2224 -77 2226 -1 1 -258 27 -571
57 -314 31 -587 59 -607 62 l-38 6 7 -174 c3 -95 6 -174 7 -175 1 -1 82 -9
181 -18 99 -8 195 -18 213 -21 l32 -5 0 -154 c0 -141 -2 -155 -17 -155 -27 0
-291 19 -350 25 l-53 5 0 -93 c0 -52 3 -128 6 -170 l7 -77 198 0 c109 0 200
-3 202 -7 3 -5 6 -82 8 -173 l4 -165 -209 -9 -209 -9 7 -96 c3 -53 6 -127 6
-165 l0 -69 215 7 c204 7 215 7 215 -11 0 -10 7 -85 15 -168 7 -82 11 -153 7
-156 -4 -3 -86 -11 -182 -18 -96 -6 -194 -14 -216 -17 l-42 -6 2 -486 c1 -529
-4 -593 -60 -809 -112 -431 -377 -641 -845 -669 -280 -17 -481 73 -619 276
-105 155 -157 322 -190 620 -6 47 -14 459 -20 915 -5 457 -14 940 -20 1075
-18 432 -80 807 -189 1139 -41 123 -129 331 -140 330 -3 0 -55 -22 -116 -49z"/>
    <path d="M23600 27459 c-578 -61 -1056 -387 -1402 -955 -230 -379 -351 -804
-365 -1289 -14 -487 70 -898 267 -1301 224 -459 563 -822 945 -1014 252 -126
432 -170 729 -178 219 -5 346 7 515 49 323 82 587 241 842 506 284 296 502
680 613 1078 127 452 133 1011 16 1450 -85 322 -217 595 -412 857 -402 539
-929 813 -1550 807 -68 -1 -157 -5 -198 -10z m409 -989 c128 -14 266 -48 371
-94 76 -33 271 -154 285 -176 3 -5 -65 -128 -153 -272 -87 -145 -164 -273
-170 -285 -11 -19 -5 -27 69 -87 44 -36 84 -66 87 -66 4 0 93 103 197 229 146
176 193 226 202 217 25 -23 111 -177 151 -268 44 -101 108 -302 114 -358 l3
-34 -227 -36 c-125 -20 -229 -38 -231 -40 -3 -4 42 -220 47 -227 2 -2 323 22
415 31 l44 4 -6 -217 c-4 -166 -10 -238 -26 -311 -25 -110 -50 -190 -60 -190
-4 0 -106 58 -226 129 l-220 130 -62 -62 c-35 -34 -63 -64 -63 -67 0 -3 108
-99 240 -214 l240 -208 -16 -36 c-59 -143 -296 -487 -318 -461 -1 2 -76 128
-166 279 -89 151 -166 279 -170 283 -6 7 -166 -79 -194 -104 -7 -6 148 -319
280 -565 24 -45 44 -84 44 -87 0 -13 -126 -91 -214 -133 -50 -24 -134 -55
-186 -69 -104 -27 -317 -53 -330 -39 -5 5 -5 137 -1 294 5 157 7 288 5 291 -5
9 -193 33 -200 26 -3 -3 -21 -130 -39 -282 -18 -151 -35 -278 -38 -281 -9 -9
-165 58 -244 104 -98 57 -210 149 -286 233 -34 39 -64 74 -66 80 -2 6 34 50
80 97 224 232 319 333 319 340 0 4 -36 40 -79 79 l-79 73 -64 -58 c-35 -31
-125 -113 -201 -180 l-137 -124 -40 86 c-70 151 -166 474 -147 493 5 5 309
-11 430 -23 l57 -5 0 129 0 129 -57 6 c-32 3 -147 12 -255 18 l-197 12 -7 46
c-17 109 17 406 66 576 26 93 102 305 109 305 3 0 105 -103 225 -230 121 -126
223 -227 228 -224 4 3 44 48 88 101 l80 95 -78 86 c-206 227 -385 428 -389
439 -17 42 275 362 419 461 80 55 234 136 279 147 l26 6 123 -355 c67 -196
124 -356 125 -356 5 0 200 72 203 75 2 1 -35 153 -82 337 -47 184 -86 342 -86
351 0 20 18 21 159 7z"/>
    <path d="M57455 26917 c-137 -46 -236 -162 -254 -300 -20 -156 56 -298 200
-373 49 -26 64 -28 159 -29 97 0 110 2 163 29 65 33 133 101 169 167 20 38 23
58 23 154 0 98 -3 116 -25 159 -39 76 -94 132 -166 167 -55 27 -80 33 -147 36
-50 2 -98 -2 -122 -10z"/>
    <path d="M14844 25420 c-111 -23 -224 -121 -264 -228 -30 -77 -25 -213 10
-285 52 -109 154 -188 268 -206 127 -20 229 16 322 115 49 53 63 76 81 135 70
229 -83 456 -320 474 -31 2 -75 0 -97 -5z"/>
    <path d="M43168 25213 c-8 -21 -82 -195 -162 -388 -81 -192 -193 -458 -248
-590 -55 -132 -113 -269 -128 -305 -16 -35 -26 -68 -24 -72 6 -10 1104 -11
1104 -1 0 3 -54 148 -119 322 -66 174 -155 411 -199 526 -44 116 -105 282
-137 370 -32 88 -61 164 -65 168 -4 4 -14 -9 -22 -30z"/>
    <path d="M42446 23483 c-33 -76 -119 -277 -193 -446 -73 -170 -133 -311 -132
-315 0 -4 32 -32 71 -62 167 -129 406 -380 581 -608 133 -174 321 -468 427
-669 18 -35 36 -63 40 -63 4 0 22 28 40 63 218 414 516 817 814 1104 l127 122
-66 130 c-86 172 -162 353 -271 644 l-88 237 -646 0 -645 0 -59 -137z"/>
    <path d="M59337 23279 c7 -7 15 -10 18 -7 3 3 -2 9 -12 12 -14 6 -15 5 -6 -5z"/>
    <path d="M59420 23232 c19 -69 61 -94 144 -85 44 5 56 9 52 20 -4 8 -6 19 -6
24 0 5 -29 8 -67 5 -66 -4 -67 -4 -100 32 l-33 37 10 -33z"/>
    <path d="M59539 23001 c-70 -7 -84 -19 -100 -82 -13 -50 -24 -64 -62 -84 -12
-6 -24 -19 -26 -30 -2 -11 -11 -25 -20 -32 -10 -8 -11 -12 -4 -13 7 0 23 14
35 31 13 16 37 39 54 50 18 11 35 32 39 47 12 50 32 62 102 62 l63 0 0 30 c0
18 -5 29 -12 29 -7 -1 -38 -5 -69 -8z"/>
    <path d="M59276 22745 c-10 -7 -16 -19 -14 -25 2 -6 13 0 26 14 24 28 18 34
-12 11z"/>
    <path d="M59179 22668 c-12 -23 -12 -23 10 -4 23 21 26 26 11 26 -5 0 -15 -10
-21 -22z"/>
    <path d="M60105 22619 c-207 -101 -298 -139 -311 -128 -15 12 -44 1 -44 -17 0
-16 -107 -71 -285 -147 -72 -30 -197 -87 -280 -127 -202 -97 -295 -134 -307
-122 -13 13 -59 -9 -53 -26 3 -9 -22 -25 -73 -49 -42 -19 -119 -55 -170 -79
-51 -24 -97 -44 -102 -44 -6 0 -95 -40 -198 -89 -221 -105 -312 -143 -312
-130 0 5 -7 9 -16 9 -10 0 -14 -6 -11 -14 4 -11 -16 -25 -71 -52 -139 -66
-313 -144 -323 -144 -5 0 -78 -33 -162 -74 -131 -64 -333 -156 -344 -156 -2 0
-3 7 -3 15 0 9 -6 12 -15 9 -8 -4 -15 -14 -15 -23 0 -11 -18 -25 -47 -38 -27
-12 -113 -51 -192 -88 -104 -48 -146 -63 -152 -54 -4 7 -15 9 -25 5 -15 -6
-16 -9 -4 -16 26 -16 -413 -216 -454 -206 -23 6 -51 -7 -51 -23 0 -6 -9 -17
-20 -25 -28 -20 -18 -25 40 -16 51 7 264 38 460 66 61 9 139 20 175 25 36 4
117 16 180 25 63 9 129 17 145 18 17 1 41 5 55 9 14 3 84 13 155 22 72 9 153
20 180 26 28 6 75 12 105 14 30 2 80 8 110 13 30 6 98 15 150 21 52 7 118 16
146 22 28 5 150 23 270 39 250 33 573 77 654 90 30 4 132 18 226 31 l172 22
78 -38 c51 -24 73 -40 62 -42 -10 -3 -18 -9 -18 -14 0 -10 21 -13 57 -10 12 1
91 -31 174 -71 127 -60 148 -74 135 -84 -15 -11 -15 -12 0 -18 8 -3 29 -6 44
-6 30 0 152 -52 230 -97 37 -22 41 -27 25 -33 -17 -6 -17 -7 -2 -13 9 -3 17
-2 17 4 0 15 26 5 197 -78 123 -59 152 -77 144 -87 -9 -10 -5 -16 19 -26 16
-7 37 -9 46 -6 16 6 113 -39 427 -199 133 -68 166 -89 157 -100 -8 -10 -5 -14
15 -19 14 -4 30 -4 35 -1 11 7 168 -61 238 -103 32 -18 40 -27 30 -33 -19 -13
8 -29 48 -29 40 0 45 6 28 38 -7 15 -11 35 -8 45 3 11 0 17 -9 17 -21 0 -40
49 -26 66 9 11 8 14 -5 14 -16 0 -96 147 -96 176 0 8 -4 14 -10 14 -5 0 -12
16 -16 36 -4 19 -13 38 -20 41 -7 3 -16 20 -20 39 -3 19 -13 38 -22 43 -9 5
-15 22 -15 39 0 20 -6 32 -17 35 -9 2 -21 22 -28 43 -6 21 -38 91 -71 156 -33
64 -57 119 -54 122 3 3 -2 8 -11 12 -9 3 -16 12 -16 19 0 7 -16 43 -35 79 -19
37 -35 71 -35 77 0 6 -8 23 -19 37 -10 15 -24 44 -30 65 -7 20 -17 37 -22 37
-5 0 -9 7 -9 16 0 9 -9 28 -19 43 -11 15 -23 40 -27 57 -4 16 -15 41 -25 56
-11 14 -19 29 -19 33 0 5 -16 40 -34 79 -19 39 -45 91 -56 116 -12 25 -34 68
-50 97 -16 29 -32 63 -36 75 -3 13 -15 35 -25 50 -11 14 -19 34 -19 43 0 9 -9
30 -20 45 -13 18 -16 31 -10 35 15 9 12 25 -5 25 -15 0 -85 135 -85 164 0 9
-3 16 -7 16 -9 0 -33 49 -33 67 0 7 -4 13 -8 13 -12 0 -34 49 -27 60 3 5 0 12
-7 17 -7 4 -19 18 -26 31 -10 19 -10 23 3 28 20 8 9 24 -16 24 -10 0 -19 5
-19 12 0 27 -53 118 -69 117 -9 0 -70 -27 -136 -60z"/>
    <path d="M59094 22619 c-19 -22 -19 -22 3 -10 24 12 39 31 25 31 -5 0 -17 -10
-28 -21z"/>
    <path d="M59005 22570 c-10 -11 -16 -20 -13 -20 3 0 15 9 28 20 13 11 19 20
13 20 -5 0 -18 -9 -28 -20z"/>
    <path d="M58825 22480 c-3 -6 1 -7 9 -4 18 7 21 14 7 14 -6 0 -13 -4 -16 -10z"/>
    <path d="M59360 22310 c0 -5 5 -10 10 -10 6 0 10 5 10 10 0 6 -4 10 -10 10 -5
0 -10 -4 -10 -10z"/>
    <path d="M48268 21123 c7 -3 16 -2 19 1 4 3 -2 6 -13 5 -11 0 -14 -3 -6 -6z"/>
    <path d="M53540 21120 c-19 -5 -51 -13 -70 -18 -36 -10 -190 -66 -225 -81 -11
-5 -40 -14 -65 -21 -25 -7 -63 -19 -85 -25 -480 -150 -1663 -289 -3195 -375
-102 -6 -257 -15 -345 -20 -281 -18 -1235 -60 -1270 -57 -11 1 -67 -2 -125 -6
-270 -18 -1279 -55 -2140 -77 -212 -5 -473 -12 -580 -15 -346 -9 -1162 -24
-1650 -30 -261 -3 -628 -8 -815 -10 -427 -6 -4084 -7 -4093 -1 -4 2 -128 5
-277 6 -977 7 -2974 39 -4150 65 -1075 24 -2439 59 -3295 85 -184 6 -495 15
-690 20 -195 6 -499 15 -675 20 -176 5 -477 14 -670 20 -192 5 -498 14 -680
20 -587 18 -1002 30 -1395 40 -212 6 -536 14 -720 20 -184 5 -524 14 -755 20
-231 5 -604 15 -830 20 -225 6 -657 15 -960 20 -302 5 -647 12 -765 15 -1190
30 -4733 41 -5920 17 -835 -16 -1593 -38 -2145 -62 -121 -6 -276 -12 -345 -15
-69 -3 -201 -10 -295 -15 -93 -6 -217 -12 -275 -15 -560 -29 -1627 -118 -2045
-170 -718 -90 -1195 -177 -1500 -272 -44 -14 -84 -29 -89 -34 -6 -5 -19 -9
-31 -9 -11 0 -28 -9 -38 -20 -10 -12 -29 -20 -47 -20 -24 0 -30 -4 -30 -22 0
-21 1 -21 142 -15 79 4 226 18 328 31 1095 147 1606 199 2535 261 810 55 2326
109 3253 117 729 6 2949 3 3612 -5 1144 -13 1686 -24 3015 -57 220 -6 582 -15
805 -20 223 -5 554 -14 735 -20 182 -5 485 -14 675 -20 850 -25 1052 -31 1315
-40 154 -6 431 -15 615 -21 449 -13 849 -26 1420 -44 577 -18 1019 -32 1450
-45 179 -5 477 -14 663 -20 498 -15 985 -29 1217 -35 113 -3 313 -10 445 -15
132 -5 510 -15 840 -20 330 -6 661 -13 735 -15 159 -6 1505 -30 2535 -45 2402
-37 5525 -33 7475 10 896 20 1915 50 2695 80 138 6 313 12 390 15 77 3 176 8
220 10 44 3 188 10 320 15 258 11 718 33 1010 50 2414 138 3792 279 4595 471
25 6 56 15 70 19 14 5 59 18 100 30 41 12 86 27 100 32 51 20 95 40 110 49 8
5 30 16 48 24 17 9 32 22 32 29 0 32 30 46 97 46 55 0 64 2 59 16 -3 9 -6 24
-6 34 0 14 -11 18 -61 22 -50 4 -66 9 -81 28 -34 43 -153 69 -228 50z"/>
    <path d="M47878 21083 c7 -3 16 -2 19 1 4 3 -2 6 -13 5 -11 0 -14 -3 -6 -6z"/>
    <path d="M46728 20973 c6 -2 18 -2 25 0 6 3 1 5 -13 5 -14 0 -19 -2 -12 -5z"/>
    <path d="M8208 20920 c-46 -25 -50 -56 -13 -96 14 -15 25 -35 25 -44 0 -10 8
-21 18 -25 16 -6 16 -7 0 -19 -24 -18 -23 -26 5 -26 16 0 30 -13 50 -45 15
-25 27 -50 27 -55 0 -6 5 -10 10 -10 6 0 10 -6 10 -14 0 -7 7 -19 15 -26 9 -7
14 -18 12 -24 -2 -6 13 -27 33 -47 28 -28 48 -39 83 -44 58 -9 144 10 157 35
14 26 13 33 -14 73 -13 19 -22 37 -20 40 3 3 -6 17 -20 32 -14 15 -32 40 -39
54 -21 42 -41 75 -56 94 -8 9 -11 17 -7 17 4 0 -4 15 -18 33 -15 19 -26 38
-26 44 0 5 -13 22 -29 37 -23 23 -39 28 -97 32 -57 4 -76 1 -106 -16z"/>
    <path d="M58965 20891 c-16 -4 -41 -13 -55 -21 -40 -21 -410 -400 -410 -420 0
-17 22 -29 79 -45 13 -4 48 -4 79 0 l56 7 188 186 c168 166 238 246 227 257
-5 4 -127 45 -131 44 -2 -1 -16 -4 -33 -8z"/>
    <path d="M44148 20753 c6 -2 18 -2 25 0 6 3 1 5 -13 5 -14 0 -19 -2 -12 -5z"/>
    <path d="M41743 20583 c9 -2 23 -2 30 0 6 3 -1 5 -18 5 -16 0 -22 -2 -12 -5z"/>
    <path d="M41608 20573 c7 -3 16 -2 19 1 4 3 -2 6 -13 5 -11 0 -14 -3 -6 -6z"/>
    <path d="M40448 20503 c6 -2 18 -2 25 0 6 3 1 5 -13 5 -14 0 -19 -2 -12 -5z"/>
    <path d="M13985 20270 c-66 -28 -120 -50 -121 -50 0 0 -6 -19 -13 -42 -37
-123 -118 -221 -215 -257 -138 -51 -290 -62 -1021 -71 -617 -7 -655 -9 -750
-29 -407 -90 -716 -315 -888 -648 -50 -96 -110 -266 -122 -343 -3 -25 -9 -53
-11 -62 -3 -11 0 -18 8 -18 7 0 88 34 179 76 l166 77 -5 121 c-4 122 13 241
40 273 9 11 3 13 -33 9 l-44 -6 41 10 c33 9 48 21 83 71 66 94 176 157 340
196 49 11 146 16 379 20 171 3 312 1 311 -3 0 -5 -33 -173 -73 -373 -62 -314
-75 -365 -91 -372 -17 -7 -18 -8 -2 -8 9 -1 17 -2 17 -4 0 -28 -168 -829 -190
-907 -73 -259 -134 -352 -264 -403 -40 -16 -75 -21 -163 -21 l-113 -1 -120
-120 c-66 -66 -120 -122 -120 -125 0 -3 39 -6 88 -8 48 -1 254 -9 457 -17 204
-8 409 -16 457 -17 l86 -3 117 125 117 125 -159 6 c-87 4 -236 7 -330 8 -95 0
-173 4 -173 9 1 4 38 32 83 62 106 71 252 216 311 307 59 91 109 209 146 340
16 56 79 353 140 660 62 307 114 567 116 578 2 11 10 52 17 90 l13 70 205 6
c223 7 340 26 502 80 257 85 485 240 617 419 40 55 120 197 120 215 0 9 -14 5
-135 -45z m-1352 -847 c-7 -2 -21 -2 -30 0 -10 3 -4 5 12 5 17 0 24 -2 18 -5z
m-145 -10 c-10 -2 -26 -2 -35 0 -10 3 -2 5 17 5 19 0 27 -2 18 -5z m-1395
-120 c-7 -2 -19 -2 -25 0 -7 3 -2 5 12 5 14 0 19 -2 13 -5z m1265 -440 c-16
-2 -40 -2 -55 0 -16 2 -3 4 27 4 30 0 43 -2 28 -4z m-110 -10 c-15 -2 -42 -2
-60 0 -18 2 -6 4 27 4 33 0 48 -2 33 -4z"/>
    <path d="M8706 20165 c-60 -21 -72 -37 -56 -74 7 -17 16 -31 21 -31 5 0 9 -4
9 -9 0 -6 25 -46 55 -90 30 -44 55 -83 55 -86 0 -4 20 -33 45 -65 25 -32 45
-62 46 -67 0 -4 14 -19 31 -32 26 -21 42 -25 107 -26 42 0 81 -3 86 -7 6 -3
19 1 30 9 14 11 16 17 8 20 -15 6 -17 39 -3 48 16 10 12 25 -8 25 -11 0 -24
15 -35 40 -9 22 -21 40 -27 40 -5 0 -10 9 -10 19 0 10 -7 21 -15 25 -8 3 -15
10 -15 16 0 6 -17 34 -38 63 -37 52 -43 61 -84 129 -38 62 -118 83 -202 53z"/>
    <path d="M58279 20159 c-8 -5 -46 -8 -85 -7 -55 2 -78 -2 -99 -16 -22 -14 -25
-20 -14 -28 11 -7 7 -15 -20 -36 -18 -15 -59 -49 -90 -75 -31 -27 -74 -64 -96
-82 -22 -19 -69 -59 -104 -90 -35 -30 -67 -55 -71 -55 -7 0 -30 -45 -30 -60 0
-18 72 -40 127 -40 61 0 94 14 145 62 19 18 65 58 103 88 37 30 82 69 101 85
18 17 56 50 85 75 88 75 109 98 109 119 0 11 7 24 16 29 12 7 7 12 -24 24 -25
10 -45 12 -53 7z"/>
    <path d="M32018 20143 c7 -3 16 -2 19 1 4 3 -2 6 -13 5 -11 0 -14 -3 -6 -6z"/>
    <path d="M30968 20113 c6 -2 18 -2 25 0 6 3 1 5 -13 5 -14 0 -19 -2 -12 -5z"/>
    <path d="M43303 20053 c9 -2 23 -2 30 0 6 3 -1 5 -18 5 -16 0 -22 -2 -12 -5z"/>
    <path d="M42648 20003 c7 -3 16 -2 19 1 4 3 -2 6 -13 5 -11 0 -14 -3 -6 -6z"/>
    <path d="M41828 19943 c6 -2 18 -2 25 0 6 3 1 5 -13 5 -14 0 -19 -2 -12 -5z"/>
    <path d="M23148 19923 c17 -2 47 -2 65 0 17 2 3 4 -33 4 -36 0 -50 -2 -32 -4z"/>
    <path d="M22108 19893 c18 -2 45 -2 60 0 15 2 0 4 -33 4 -33 0 -45 -2 -27 -4z"/>
    <path d="M41083 19893 c9 -2 23 -2 30 0 6 3 -1 5 -18 5 -16 0 -22 -2 -12 -5z"/>
    <path d="M20828 19853 c18 -2 45 -2 60 0 15 2 0 4 -33 4 -33 0 -45 -2 -27 -4z"/>
    <path d="M39823 19813 c9 -2 25 -2 35 0 9 3 1 5 -18 5 -19 0 -27 -2 -17 -5z"/>
    <path d="M39663 19803 c9 -2 23 -2 30 0 6 3 -1 5 -18 5 -16 0 -22 -2 -12 -5z"/>
    <path d="M19208 19793 c6 -2 18 -2 25 0 6 3 1 5 -13 5 -14 0 -19 -2 -12 -5z"/>
    <path d="M18943 19783 c9 -2 25 -2 35 0 9 3 1 5 -18 5 -19 0 -27 -2 -17 -5z"/>
    <path d="M18683 19773 c9 -2 23 -2 30 0 6 3 -1 5 -18 5 -16 0 -22 -2 -12 -5z"/>
    <path d="M18443 19763 c9 -2 23 -2 30 0 6 3 -1 5 -18 5 -16 0 -22 -2 -12 -5z"/>
    <path d="M37848 19703 c7 -3 16 -2 19 1 4 3 -2 6 -13 5 -11 0 -14 -3 -6 -6z"/>
    <path d="M37658 19693 c7 -3 16 -2 19 1 4 3 -2 6 -13 5 -11 0 -14 -3 -6 -6z"/>
    <path d="M37448 19683 c12 -2 30 -2 40 0 9 3 -1 5 -23 4 -22 0 -30 -2 -17 -4z"/>
    <path d="M16518 19673 c6 -2 18 -2 25 0 6 3 1 5 -13 5 -14 0 -19 -2 -12 -5z"/>
    <path d="M37268 19673 c12 -2 30 -2 40 0 9 3 -1 5 -23 4 -22 0 -30 -2 -17 -4z"/>
    <path d="M16348 19663 c7 -3 16 -2 19 1 4 3 -2 6 -13 5 -11 0 -14 -3 -6 -6z"/>
    <path d="M37053 19663 c15 -2 37 -2 50 0 12 2 0 4 -28 4 -27 0 -38 -2 -22 -4z"/>
    <path d="M16168 19653 c6 -2 18 -2 25 0 6 3 1 5 -13 5 -14 0 -19 -2 -12 -5z"/>
    <path d="M36843 19653 c15 -2 37 -2 50 0 12 2 0 4 -28 4 -27 0 -38 -2 -22 -4z"/>
    <path d="M15998 19643 c7 -3 16 -2 19 1 4 3 -2 6 -13 5 -11 0 -14 -3 -6 -6z"/>
    <path d="M36633 19643 c15 -2 37 -2 50 0 12 2 0 4 -28 4 -27 0 -38 -2 -22 -4z"/>
    <path d="M15818 19633 c7 -3 16 -2 19 1 4 3 -2 6 -13 5 -11 0 -14 -3 -6 -6z"/>
    <path d="M36418 19633 c12 -2 32 -2 45 0 12 2 2 4 -23 4 -25 0 -35 -2 -22 -4z"/>
    <path d="M36203 19623 c15 -2 37 -2 50 0 12 2 0 4 -28 4 -27 0 -38 -2 -22 -4z"/>
    <path d="M35958 19613 c12 -2 30 -2 40 0 9 3 -1 5 -23 4 -22 0 -30 -2 -17 -4z"/>
    <path d="M35733 19603 c9 -2 25 -2 35 0 9 3 1 5 -18 5 -19 0 -27 -2 -17 -5z"/>
    <path d="M14618 19563 c6 -2 18 -2 25 0 6 3 1 5 -13 5 -14 0 -19 -2 -12 -5z"/>
    <path d="M14473 19553 c9 -2 23 -2 30 0 6 3 -1 5 -18 5 -16 0 -22 -2 -12 -5z"/>
    <path d="M33428 19513 c17 -2 47 -2 65 0 17 2 3 4 -33 4 -36 0 -50 -2 -32 -4z"/>
    <path d="M13573 19493 c9 -2 23 -2 30 0 6 3 -1 5 -18 5 -16 0 -22 -2 -12 -5z"/>
    <path d="M31978 19463 c7 -3 16 -2 19 1 4 3 -2 6 -13 5 -11 0 -14 -3 -6 -6z"/>
    <path d="M12768 19433 c7 -3 16 -2 19 1 4 3 -2 6 -13 5 -11 0 -14 -3 -6 -6z"/>
    <path d="M57435 19431 c-4 -3 -39 -6 -79 -6 -81 -1 -72 4 -228 -113 -42 -31
-98 -73 -124 -92 -26 -19 -64 -49 -83 -65 -20 -17 -58 -46 -86 -65 -27 -19
-55 -41 -62 -50 -36 -45 8 -75 113 -75 65 0 76 3 113 30 22 17 71 52 108 79
37 27 73 55 78 61 6 6 38 30 73 53 34 24 62 46 62 50 0 5 27 26 60 47 68 44
91 73 83 104 -3 12 -1 21 6 21 6 0 11 4 11 9 0 11 -37 21 -45 12z"/>
    <path d="M9200 19402 c-46 -22 -49 -46 -11 -92 17 -22 31 -44 31 -49 0 -6 5
-11 10 -11 6 0 15 -11 20 -25 5 -14 14 -25 20 -25 5 0 10 -9 10 -19 0 -11 9
-23 20 -26 26 -8 26 -22 -1 -30 -25 -8 -17 -19 15 -20 16 0 35 -16 60 -48 20
-26 36 -49 36 -52 0 -3 17 -21 38 -41 37 -35 38 -36 109 -31 87 5 123 24 123
66 0 16 -6 31 -15 35 -8 3 -15 12 -15 21 0 8 -5 15 -10 15 -6 0 -15 11 -20 25
-5 14 -17 28 -25 31 -8 4 -15 11 -15 16 0 6 -13 27 -30 48 -16 21 -30 42 -30
47 0 4 -9 14 -20 21 -11 7 -20 18 -20 26 0 8 -7 16 -15 20 -8 3 -15 12 -15 21
0 8 -4 15 -9 15 -5 0 -12 9 -16 19 -16 52 -155 78 -225 43z"/>
    <path d="M30078 19413 c23 -2 61 -2 85 0 23 2 4 4 -43 4 -47 0 -66 -2 -42 -4z"/>
    <path d="M29228 19393 c17 -2 47 -2 65 0 17 2 3 4 -33 4 -36 0 -50 -2 -32 -4z"/>
    <path d="M11658 19343 c7 -3 16 -2 19 1 4 3 -2 6 -13 5 -11 0 -14 -3 -6 -6z"/>
    <path d="M26913 19343 c26 -2 68 -2 95 0 26 2 4 3 -48 3 -52 0 -74 -1 -47 -3z"/>
    <path d="M25373 19313 c9 -2 25 -2 35 0 9 3 1 5 -18 5 -19 0 -27 -2 -17 -5z"/>
    <path d="M25483 19313 c15 -2 37 -2 50 0 12 2 0 4 -28 4 -27 0 -38 -2 -22 -4z"/>
    <path d="M25593 19313 c9 -2 25 -2 35 0 9 3 1 5 -18 5 -19 0 -27 -2 -17 -5z"/>
    <path d="M23328 19273 c29 -2 74 -2 100 0 26 2 2 3 -53 3 -55 0 -76 -1 -47 -3z"/>
    <path d="M10378 19223 c6 -2 18 -2 25 0 6 3 1 5 -13 5 -14 0 -19 -2 -12 -5z"/>
    <path d="M20008 19193 c23 -2 59 -2 80 0 20 2 1 4 -43 4 -44 0 -61 -2 -37 -4z"/>
    <path d="M18958 19163 c23 -2 59 -2 80 0 20 2 1 4 -43 4 -44 0 -61 -2 -37 -4z"/>
    <path d="M17458 19113 c17 -2 47 -2 65 0 17 2 3 4 -33 4 -36 0 -50 -2 -32 -4z"/>
    <path d="M13403 18923 c9 -2 23 -2 30 0 6 3 -1 5 -18 5 -16 0 -22 -2 -12 -5z"/>
    <path d="M13233 18913 c9 -2 25 -2 35 0 9 3 1 5 -18 5 -19 0 -27 -2 -17 -5z"/>
    <path d="M11448 18793 c7 -3 16 -2 19 1 4 3 -2 6 -13 5 -11 0 -14 -3 -6 -6z"/>
    <path d="M11328 18783 c7 -3 16 -2 19 1 4 3 -2 6 -13 5 -11 0 -14 -3 -6 -6z"/>
    <path d="M13925 18776 c-214 -52 -387 -233 -474 -494 -12 -35 -55 -228 -96
-430 -40 -202 -85 -415 -99 -474 -14 -59 -26 -113 -26 -119 0 -8 26 -10 85 -7
47 2 87 6 89 9 3 2 19 74 36 159 29 142 36 162 82 240 196 328 378 499 452
424 25 -24 20 -70 -38 -365 -71 -357 -74 -403 -27 -450 26 -26 36 -29 94 -29
54 0 76 6 135 35 93 47 208 155 216 204 l6 34 -63 -60 c-110 -106 -199 -147
-235 -111 -21 21 -14 81 44 371 78 388 76 460 -12 502 -50 24 -128 15 -195
-22 -114 -62 -265 -235 -348 -400 -17 -35 -36 -63 -42 -63 -6 0 -8 8 -5 18 3
9 30 141 61 293 93 466 135 572 246 629 72 37 190 35 270 -6 25 -12 28 -10 88
50 l63 63 -39 6 c-61 11 -214 6 -268 -7z"/>
    <path d="M23968 18777 c-72 -27 -134 -72 -220 -157 -49 -48 -88 -92 -88 -98 0
-5 7 -12 14 -15 9 -4 41 19 83 61 91 90 147 117 238 117 147 -1 246 -96 314
-300 65 -197 85 -443 71 -857 -5 -155 -7 -284 -5 -286 2 -2 21 -1 42 3 l39 6
249 499 c137 275 252 496 256 492 8 -9 35 -169 54 -312 22 -177 35 -369 35
-538 l0 -154 38 7 c20 3 41 10 45 15 12 10 637 1221 637 1232 0 4 20 8 44 8
31 0 46 5 50 16 14 37 8 39 -96 37 -57 -1 -140 -2 -185 -3 -82 0 -83 0 -83
-25 0 -23 4 -25 45 -25 31 0 51 -6 64 -19 19 -19 19 -23 5 -83 -8 -35 -38
-117 -66 -183 -51 -122 -319 -655 -328 -655 -3 0 -16 105 -29 233 -12 127 -36
316 -52 418 -16 103 -32 219 -35 258 -6 59 -10 71 -23 67 -9 -3 -28 -8 -42
-11 -23 -6 -53 -61 -250 -462 l-224 -456 -12 256 c-21 449 -75 657 -209 806
-75 82 -145 115 -254 119 -53 1 -99 -3 -122 -11z"/>
    <path d="M31035 18763 c-53 -22 -62 -29 -78 -67 -10 -23 -32 -57 -50 -74 -53
-51 -125 -62 -452 -68 -440 -7 -470 -9 -561 -38 -159 -51 -302 -171 -369 -310
-33 -68 -71 -193 -62 -202 2 -2 42 14 90 36 l86 40 -6 53 c-8 79 19 162 67
209 67 63 130 80 323 86 159 4 167 4 167 -14 0 -38 -159 -810 -178 -865 -46
-131 -77 -159 -186 -167 -71 -4 -71 -4 -128 -60 -32 -31 -58 -59 -58 -62 0 -3
10 -5 23 -6 12 0 135 -4 272 -8 l250 -7 53 60 53 61 -68 1 c-37 0 -79 2 -93 3
-14 1 -56 3 -95 4 l-70 3 30 21 c69 51 155 143 184 198 46 86 55 120 130 495
l68 340 129 6 c210 11 368 75 489 197 39 39 112 149 104 156 -2 1 -31 -8 -64
-21z"/>
    <path d="M37618 18775 c-124 -34 -267 -127 -345 -224 -49 -61 -98 -159 -132
-261 l-21 -66 -128 -11 c-147 -13 -202 -29 -292 -87 -212 -138 -380 -427 -380
-655 0 -160 55 -231 181 -233 149 -2 328 160 464 420 38 71 60 93 50 50 -2
-13 -16 -85 -31 -162 -33 -174 -30 -248 10 -283 22 -19 38 -23 93 -23 53 0 77
6 129 31 86 42 210 161 220 209 l7 35 -76 -72 c-82 -78 -140 -113 -185 -113
-37 0 -52 16 -52 56 0 48 177 927 206 1024 32 106 77 192 121 230 69 61 190
74 300 32 l48 -19 58 61 c54 58 56 61 35 68 -40 11 -231 7 -280 -7z m-578
-671 c27 -10 50 -21 50 -25 0 -42 -46 -210 -67 -247 -53 -92 -142 -218 -207
-295 -226 -263 -359 -222 -302 93 39 212 150 424 250 478 63 33 177 31 276 -4z"/>
    <path d="M49254 18756 c-39 -18 -53 -30 -58 -52 -10 -38 -51 -91 -84 -108 -58
-30 -154 -38 -527 -45 -357 -8 -384 -9 -445 -31 -138 -48 -247 -121 -317 -215
-57 -75 -76 -112 -103 -202 -32 -107 -30 -109 68 -63 l82 39 0 69 c0 93 22
152 75 201 64 59 119 72 318 78 92 3 167 3 167 1 0 -26 -164 -819 -179 -869
-39 -125 -87 -171 -183 -176 -79 -5 -99 -15 -152 -77 -43 -51 -43 -51 -17 -52
14 0 136 -4 271 -8 l245 -8 60 61 59 61 -54 1 c-30 1 -73 2 -95 3 -22 1 -73 3
-114 4 l-73 2 58 43 c100 74 155 147 197 262 13 39 55 224 93 413 l68 342 102
0 c240 0 457 102 571 268 62 91 57 99 -33 58z"/>
    <path d="M10793 18743 c9 -2 23 -2 30 0 6 3 -1 5 -18 5 -16 0 -22 -2 -12 -5z"/>
    <path d="M10708 18733 c7 -3 16 -2 19 1 4 3 -2 6 -13 5 -11 0 -14 -3 -6 -6z"/>
    <path d="M56345 18721 c-37 -9 -91 -37 -101 -52 -3 -6 -40 -33 -80 -59 -41
-27 -91 -61 -112 -77 -20 -16 -73 -52 -117 -78 -155 -95 -194 -142 -140 -167
16 -7 24 -17 20 -26 -4 -11 1 -13 22 -8 16 4 51 11 78 15 50 9 133 53 211 114
23 18 82 58 130 90 288 186 301 201 222 237 -45 20 -82 23 -133 11z"/>
    <path d="M9807 18669 c-88 -21 -97 -47 -42 -115 19 -23 35 -49 35 -58 0 -9 8
-16 19 -16 28 0 37 -20 12 -27 -11 -3 -18 -10 -15 -15 3 -5 12 -7 20 -4 24 9
45 -5 39 -25 -5 -15 -1 -19 15 -19 11 0 24 -8 27 -17 6 -17 36 -53 96 -116 15
-16 27 -32 27 -36 0 -12 73 -31 116 -31 53 1 124 34 124 58 0 20 -51 91 -76
105 -8 4 -14 14 -14 22 0 8 -9 19 -20 25 -11 6 -20 15 -20 20 0 6 -17 28 -37
50 -21 22 -47 52 -58 66 -11 15 -28 34 -37 42 -10 9 -18 21 -18 27 0 13 -79
65 -100 65 -8 0 -24 2 -35 4 -11 3 -37 0 -58 -5z"/>
    <path d="M34821 18572 c-105 -71 -116 -81 -138 -130 -12 -30 -19 -52 -15 -50
4 2 53 27 109 56 l103 52 35 70 c19 38 35 72 35 75 0 12 -20 0 -129 -73z"/>
    <path d="M17185 18584 c-103 -16 -223 -81 -297 -160 -47 -50 -80 -131 -86
-205 -10 -138 10 -169 239 -371 164 -144 216 -210 226 -287 12 -88 -45 -189
-131 -233 -62 -32 -184 -37 -273 -9 -59 18 -128 53 -185 93 -15 11 -26 5 -78
-47 l-61 -60 52 -23 c29 -13 79 -29 113 -37 83 -20 272 -19 350 1 140 36 287
145 335 249 28 60 38 158 22 208 -22 66 -95 150 -248 284 -83 73 -164 153
-181 179 -75 113 -37 249 89 319 49 27 63 30 144 30 103 0 149 -18 202 -79 30
-34 51 -104 38 -126 -4 -6 6 -10 24 -10 17 0 31 2 31 4 0 2 9 49 21 106 17 83
18 104 8 111 -67 41 -266 76 -354 63z"/>
    <path d="M41860 18579 c-176 -27 -312 -99 -451 -238 -174 -176 -249 -354 -249
-595 0 -163 33 -258 121 -351 93 -98 195 -135 375 -135 99 0 252 19 298 36 20
8 17 -8 -21 -126 -29 -91 -78 -160 -129 -185 -89 -44 -247 -27 -346 37 -26 16
-51 28 -55 26 -35 -15 -133 -72 -133 -77 0 -9 55 -37 110 -57 70 -25 251 -30
343 -10 253 57 377 218 452 591 14 72 42 192 61 267 18 75 34 140 34 143 0 4
-93 5 -207 3 l-208 -3 -63 -34 c-78 -43 -152 -106 -152 -132 0 -24 1 -24 43 1
66 39 148 60 262 66 65 4 114 3 118 -2 3 -5 -14 -106 -37 -224 l-43 -215 -49
-13 c-75 -20 -275 -11 -342 16 -110 43 -186 126 -224 243 -17 55 -19 81 -15
184 8 179 52 320 144 458 140 211 332 311 532 277 141 -24 221 -88 221 -176 0
-40 2 -44 24 -44 22 0 27 10 60 112 19 62 33 114 31 117 -3 2 -47 12 -97 22
-115 22 -321 31 -408 18z"/>
    <path d="M56030 18559 c0 -5 5 -7 10 -4 6 3 10 8 10 11 0 2 -4 4 -10 4 -5 0
-10 -5 -10 -11z"/>
    <path d="M33660 18535 c-293 -50 -443 -174 -496 -411 -9 -41 -14 -77 -12 -80
3 -2 42 12 86 33 l81 38 1 41 c1 111 86 237 194 288 54 26 191 54 203 43 3 -4
-18 -132 -48 -284 l-54 -278 -50 -3 c-47 -3 -95 -30 -95 -54 0 -4 29 -8 65 -8
36 0 65 -1 65 -3 0 -18 -86 -424 -105 -493 -50 -189 -108 -300 -184 -351 -106
-72 -256 -48 -331 52 l-34 45 -63 -62 -64 -63 33 -27 c78 -65 215 -86 343 -53
215 55 396 250 491 526 20 59 94 390 94 422 0 10 105 9 217 -4 l96 -10 41 40
41 41 -188 0 -187 0 1 23 c0 12 24 139 53 282 l52 260 79 3 c154 6 289 -31
314 -84 6 -15 9 -41 5 -61 -6 -33 -5 -34 21 -31 24 3 29 12 61 108 18 58 34
111 34 118 0 17 -654 15 -760 -3z"/>
    <path d="M22083 18478 l-82 -20 -22 -124 -23 -124 -75 0 c-68 0 -78 -3 -103
-27 -15 -15 -28 -29 -28 -32 0 -3 43 -5 95 -3 52 2 95 1 95 -1 0 -3 -27 -142
-61 -309 -65 -323 -82 -474 -59 -528 7 -17 26 -40 42 -51 26 -19 40 -21 112
-17 72 4 91 9 147 40 88 49 156 111 164 149 4 17 5 32 3 34 -2 3 -31 -16 -64
-40 -61 -46 -147 -85 -188 -85 -38 0 -61 35 -59 89 2 61 131 703 143 715 6 6
57 6 137 0 l128 -10 32 36 33 35 -160 3 c-118 2 -160 6 -160 15 0 6 11 68 25
136 14 68 25 128 25 133 0 10 4 10 -97 -14z"/>
    <path d="M46056 18479 c-44 -11 -81 -20 -82 -22 -1 -1 -12 -49 -24 -107 -11
-58 -23 -113 -26 -122 -5 -15 -18 -18 -83 -18 -74 0 -78 -1 -99 -30 -12 -16
-22 -30 -22 -32 0 -2 39 -2 86 0 48 2 90 0 94 -5 5 -4 -18 -138 -51 -298 -70
-347 -82 -431 -73 -492 13 -89 84 -129 197 -112 105 16 265 125 278 189 4 19
7 36 5 37 -1 1 -34 -20 -73 -48 -113 -78 -185 -97 -224 -58 -28 28 -26 44 56
458 36 179 65 328 65 329 0 2 62 1 138 -3 l137 -7 34 36 35 36 -166 0 -165 0
28 138 c15 75 28 140 29 145 0 9 -1 9 -94 -14z"/>
    <path d="M50616 18479 c-44 -11 -82 -21 -84 -24 -4 -4 -10 -32 -42 -187 l-11
-58 -78 0 c-68 0 -80 -3 -99 -23 -12 -13 -22 -27 -22 -33 0 -5 38 -8 90 -6 82
3 90 2 90 -15 0 -11 -27 -154 -60 -318 -70 -344 -81 -452 -53 -504 29 -56 60
-72 134 -72 38 0 84 7 110 17 96 38 219 135 219 173 0 10 3 27 7 37 4 10 -16
-1 -48 -26 -64 -51 -163 -100 -201 -100 -39 0 -68 32 -68 76 0 31 120 662 136
717 5 17 15 18 132 12 70 -4 130 -9 133 -11 3 -2 23 15 44 36 l39 40 -167 0
c-92 0 -167 1 -167 3 0 4 48 234 55 265 6 26 11 26 -89 1z"/>
    <path d="M55808 18403 c7 -3 16 -2 19 1 4 3 -2 6 -13 5 -11 0 -14 -3 -6 -6z"/>
    <path d="M56115 18350 c-3 -5 -2 -10 4 -10 5 0 13 5 16 10 3 6 2 10 -4 10 -5
0 -13 -4 -16 -10z"/>
    <path d="M14933 18215 c-193 -52 -393 -263 -463 -490 -28 -90 -31 -227 -6
-302 21 -63 86 -140 141 -164 57 -26 182 -25 271 2 118 36 324 153 324 183 0
8 3 22 7 32 6 16 2 15 -28 -4 -105 -70 -235 -124 -330 -137 -131 -19 -219 73
-219 230 l0 61 94 12 c208 26 374 123 451 263 26 47 30 64 30 135 0 72 -3 85
-28 122 -48 68 -130 87 -244 57z m69 -86 c27 -14 48 -69 48 -123 0 -141 -111
-258 -285 -300 -115 -28 -135 -29 -135 -9 0 35 42 169 72 229 36 74 116 167
167 194 40 21 102 26 133 9z"/>
    <path d="M17850 18214 c-100 -36 -253 -161 -264 -215 -3 -18 -5 -34 -3 -35 2
-2 34 26 73 62 38 35 93 76 123 91 49 25 56 25 80 12 16 -9 27 -25 29 -41 5
-38 -125 -687 -165 -822 -5 -17 1 -18 80 -15 47 2 89 7 92 11 4 4 22 76 40
161 36 169 56 210 191 404 148 211 277 314 325 257 22 -27 13 -96 -60 -464
-39 -195 -71 -359 -71 -364 0 -8 154 -5 164 4 2 3 19 75 36 160 31 151 34 158
100 270 164 278 286 410 379 410 35 0 51 -22 51 -72 0 -18 -24 -154 -54 -303
-69 -345 -72 -369 -51 -422 45 -111 228 -79 388 69 52 48 70 72 77 101 l8 37
-66 -61 c-116 -108 -198 -145 -232 -104 -20 24 -15 68 45 367 77 388 74 465
-22 505 -86 35 -190 -4 -299 -111 -80 -80 -136 -159 -206 -291 -26 -49 -48
-81 -48 -70 0 11 11 76 25 145 30 151 31 213 6 260 -100 189 -366 26 -576
-353 -20 -37 -39 -66 -42 -64 -2 3 10 76 27 163 38 192 37 261 -3 301 -33 33
-111 41 -177 17z"/>
    <path d="M20888 18206 c-31 -13 -78 -39 -105 -59 -62 -45 -153 -141 -153 -161
0 -8 -3 -23 -7 -32 -4 -10 24 12 61 49 87 88 148 127 198 127 73 0 74 -38 3
-392 -25 -126 -59 -284 -75 -352 -17 -68 -30 -127 -30 -131 0 -12 170 -1 178
12 4 7 20 78 36 158 25 129 34 154 77 229 111 194 257 368 340 406 54 24 81
25 125 4 19 -9 36 -15 38 -13 2 2 27 37 56 77 59 82 58 86 -18 98 -95 14 -188
-32 -307 -151 -84 -84 -151 -177 -206 -285 -18 -35 -34 -59 -36 -53 -2 6 7 71
21 144 42 215 33 299 -34 334 -41 21 -96 18 -162 -9z"/>
    <path d="M27175 18206 c-91 -45 -174 -134 -186 -199 l-7 -42 46 53 c89 101
139 117 171 54 22 -44 33 -101 56 -292 43 -360 66 -463 112 -499 30 -25 73
-27 112 -6 63 32 200 213 286 378 37 70 64 102 51 60 -3 -10 -39 -155 -80
-323 -100 -408 -129 -491 -198 -557 -70 -67 -180 -83 -297 -42 l-63 21 -54
-53 c-30 -29 -54 -56 -54 -60 0 -12 96 -29 158 -29 136 1 289 58 390 146 90
79 180 224 231 372 12 35 66 242 121 460 54 218 110 435 124 481 14 46 25 86
23 87 -1 2 -43 0 -93 -3 l-89 -6 -34 -141 -33 -141 -112 -184 c-123 -203 -198
-295 -237 -289 -39 5 -56 59 -83 274 -46 356 -61 425 -100 470 -32 38 -96 42
-161 10z"/>
    <path d="M31253 18216 c-201 -49 -408 -265 -479 -502 -26 -87 -25 -244 3 -305
27 -60 86 -125 137 -151 51 -26 180 -28 252 -3 224 76 411 293 460 535 60 300
-105 491 -373 426z m69 -66 c46 -13 91 -66 109 -129 20 -68 17 -279 -5 -361
-40 -150 -136 -293 -221 -331 -22 -10 -59 -19 -83 -19 -89 0 -142 52 -168 167
-44 197 31 470 166 604 72 73 124 90 202 69z"/>
    <path d="M34625 18161 c-110 -36 -206 -70 -212 -74 -21 -13 -16 -49 5 -43 52
16 119 26 138 22 33 -9 44 -53 33 -133 -5 -37 -30 -170 -54 -295 -49 -244 -53
-290 -31 -343 19 -44 42 -55 119 -55 82 0 154 35 259 124 71 61 88 87 88 139
0 5 -35 -24 -77 -64 -83 -79 -133 -109 -182 -109 -39 0 -55 28 -47 84 15 94
107 550 136 670 17 71 30 132 28 135 -2 4 -93 -22 -203 -58z"/>
    <path d="M35230 18207 c-111 -46 -242 -162 -254 -226 l-6 -34 67 64 c112 107
169 138 219 119 20 -8 24 -16 24 -54 0 -52 -87 -504 -131 -678 -16 -64 -29
-124 -29 -132 0 -13 12 -16 59 -16 122 0 113 -10 151 168 29 143 37 164 83
242 195 328 377 499 451 424 25 -24 20 -71 -39 -367 -36 -179 -55 -302 -55
-347 0 -66 2 -74 29 -101 26 -26 36 -29 94 -29 53 0 76 6 133 35 73 36 199
142 208 175 3 11 9 30 12 43 5 16 -12 4 -61 -42 -119 -110 -201 -147 -235
-106 -20 24 -15 64 45 364 39 200 55 302 55 360 0 79 -1 83 -34 119 -33 36
-37 37 -103 37 -56 0 -78 -6 -123 -30 -109 -59 -268 -243 -360 -418 -24 -46
-47 -65 -36 -29 3 10 17 76 31 147 28 148 32 243 10 284 -27 54 -114 65 -205
28z"/>
    <path d="M42695 18212 c-27 -10 -77 -36 -110 -59 -68 -46 -165 -144 -165 -167
0 -8 -3 -23 -7 -33 -3 -10 32 18 78 63 90 87 132 114 176 114 76 -1 78 -41 14
-362 -28 -142 -65 -313 -81 -382 -17 -68 -30 -127 -30 -131 0 -9 166 -2 176 7
3 4 21 78 39 165 30 153 33 161 90 253 159 258 298 399 393 400 13 0 39 -7 58
-16 19 -9 36 -15 38 -13 2 2 27 37 56 77 59 82 58 86 -20 98 -156 24 -344
-139 -518 -446 -38 -67 -39 -59 -7 100 28 145 32 248 10 290 -30 59 -99 74
-190 42z"/>
    <path d="M43991 18215 c-86 -24 -160 -72 -252 -164 -145 -144 -216 -292 -226
-467 -9 -157 39 -262 146 -316 46 -24 67 -28 134 -28 43 0 104 7 135 16 94 27
309 142 334 178 4 6 8 21 8 33 0 19 -7 17 -81 -28 -140 -84 -281 -123 -358
-100 -87 26 -129 91 -138 217 l-6 71 69 7 c147 15 263 57 365 132 101 74 149
160 149 267 0 83 -17 126 -64 162 -45 34 -134 42 -215 20z m74 -81 c28 -11 48
-64 48 -131 0 -154 -120 -266 -326 -308 -43 -8 -82 -13 -86 -10 -5 2 -4 28 1
57 30 164 147 346 249 387 28 11 90 14 114 5z"/>
    <path d="M49174 18212 c-102 -36 -246 -159 -259 -222 l-8 -34 74 68 c88 82
168 124 205 108 35 -17 38 -49 16 -164 -112 -572 -113 -575 -90 -651 16 -54
55 -77 133 -77 45 0 73 7 113 27 97 49 243 226 331 401 17 34 36 62 41 62 10
0 9 -13 -26 -177 -13 -62 -24 -145 -24 -184 0 -65 2 -73 29 -100 27 -26 36
-29 97 -29 54 0 78 6 130 31 86 42 210 161 220 209 l7 35 -76 -72 c-82 -78
-140 -113 -185 -113 -37 0 -52 16 -52 56 0 37 107 577 144 729 14 55 24 101
22 102 -1 2 -43 0 -92 -5 l-89 -7 -31 -157 c-35 -173 -44 -194 -168 -377 -81
-121 -220 -271 -272 -296 -44 -21 -80 -9 -90 30 -4 16 18 149 56 341 70 354
73 405 27 451 -34 35 -111 41 -183 15z"/>
    <path d="M51557 18215 c-170 -47 -331 -192 -422 -380 -52 -109 -68 -173 -68
-280 -1 -104 21 -170 79 -234 62 -68 107 -85 226 -79 84 3 101 8 178 45 246
119 416 403 397 661 -16 211 -182 324 -390 267z m112 -83 c69 -51 96 -146 88
-307 -7 -126 -24 -201 -72 -301 -64 -133 -159 -213 -253 -214 -119 0 -174 90
-176 285 -1 134 20 225 76 345 46 96 133 192 189 209 45 14 118 5 148 -17z"/>
    <path d="M52318 18216 c-57 -20 -122 -62 -188 -119 -71 -62 -85 -81 -95 -125
-7 -32 -6 -32 47 24 68 73 161 134 203 134 45 0 60 -23 59 -89 -2 -60 -87
-495 -133 -680 l-29 -113 89 4 c49 2 91 6 93 9 3 2 19 74 36 159 29 143 36
162 85 245 185 314 351 460 455 400 14 -8 28 -14 31 -15 4 0 32 34 64 76 44
59 54 78 44 85 -23 14 -95 21 -138 14 -83 -14 -216 -117 -316 -245 -37 -48
-137 -212 -148 -244 -2 -6 -7 -9 -10 -6 -3 3 8 70 24 150 31 156 35 225 16
280 -21 61 -104 86 -189 56z"/>
    <path d="M20065 18204 c-122 -26 -208 -76 -316 -184 -108 -108 -174 -207 -221
-331 -29 -77 -32 -94 -32 -209 -1 -141 10 -175 74 -217 53 -36 149 -32 230 9
111 58 252 222 339 396 29 57 59 86 47 45 -12 -42 -55 -281 -57 -313 -3 -84 1
-102 30 -131 26 -26 37 -29 89 -29 76 0 129 19 206 74 85 61 142 124 150 165
6 33 6 33 -69 -37 -81 -77 -138 -112 -183 -112 -44 0 -56 21 -49 88 8 73 107
567 140 693 l24 96 -96 7 c-142 9 -228 6 -306 -10z m105 -90 c36 -8 71 -18 78
-23 9 -6 7 -30 -9 -111 -18 -89 -29 -117 -78 -198 -117 -197 -292 -387 -380
-413 -98 -29 -133 71 -95 271 39 210 148 415 246 466 65 34 118 35 238 8z"/>
    <path d="M26386 18204 c-136 -30 -265 -108 -357 -216 -154 -179 -219 -333
-219 -518 0 -112 22 -170 79 -207 51 -34 149 -32 221 4 110 55 264 232 351
405 16 32 33 58 37 58 5 0 -4 -62 -19 -137 -40 -203 -43 -243 -26 -285 22 -52
55 -70 124 -69 77 1 175 49 265 131 60 54 88 99 88 140 0 3 -29 -22 -64 -57
-144 -140 -252 -165 -248 -58 2 47 83 464 128 653 20 84 34 155 32 158 -3 2
-76 6 -164 9 -122 4 -175 1 -228 -11z m121 -96 c64 -18 72 -23 68 -42 -3 -12
-13 -60 -23 -108 -14 -67 -30 -106 -68 -168 -140 -231 -332 -430 -417 -430 -9
0 -28 10 -43 23 -23 20 -27 33 -32 96 -8 124 31 287 108 446 47 98 89 149 143
177 78 40 139 42 264 6z"/>
    <path d="M39298 18205 c-163 -37 -302 -133 -416 -287 -104 -141 -153 -267
-160 -413 -5 -115 6 -170 45 -215 33 -40 62 -51 136 -51 81 -1 151 36 249 130
81 77 162 188 217 299 17 34 35 62 40 62 5 0 0 -42 -11 -92 -55 -270 -55 -335
-1 -377 44 -35 134 -29 221 14 92 46 208 155 216 203 6 34 6 34 -71 -38 -83
-78 -136 -110 -181 -110 -37 0 -52 17 -52 59 0 46 81 465 127 658 20 84 34
155 32 158 -3 2 -77 7 -165 10 -121 4 -175 1 -226 -10z m49 -79 c36 -5 132
-33 141 -40 1 -2 -8 -50 -21 -108 -18 -83 -34 -122 -72 -188 -105 -179 -303
-397 -383 -421 -132 -39 -151 169 -41 460 45 121 73 172 123 223 56 57 134 91
191 82 11 -1 39 -5 62 -8z"/>
    <path d="M45095 18214 c-226 -36 -432 -203 -551 -449 -55 -112 -77 -213 -72
-321 7 -144 59 -204 177 -204 101 1 151 27 270 143 72 70 141 168 195 275 20
39 41 72 46 72 6 0 10 -1 10 -2 0 -2 -12 -57 -25 -123 -14 -66 -28 -161 -32
-212 l-6 -92 32 -32 c32 -31 33 -31 110 -27 64 4 87 10 134 37 83 47 194 158
203 201 l7 35 -76 -72 c-82 -78 -140 -113 -185 -113 -37 0 -52 16 -52 56 0 38
110 589 144 724 13 52 23 96 22 97 -5 5 -323 11 -351 7z m78 -105 c37 -11 67
-23 67 -28 0 -5 -9 -53 -20 -107 -17 -79 -30 -113 -72 -183 -76 -128 -152
-226 -243 -316 -118 -117 -190 -142 -231 -80 -68 105 36 508 169 652 84 91
171 108 330 62z"/>
    <path d="M55314 18037 c-39 -15 -279 -156 -369 -217 -38 -26 -107 -68 -152
-94 -73 -42 -83 -51 -83 -76 0 -24 5 -29 45 -40 83 -23 130 -10 288 85 105 61
156 86 187 89 48 5 61 13 40 26 -17 10 -8 24 29 44 79 44 179 106 190 120 12
14 11 19 -4 36 -33 36 -113 49 -171 27z"/>
    <path d="M10345 17930 c-3 -5 1 -10 9 -10 18 0 20 -8 7 -29 -12 -19 -1 -40 49
-91 22 -23 40 -42 40 -44 0 -2 31 -36 70 -77 38 -41 70 -79 70 -85 0 -7 11
-15 25 -18 14 -4 25 -11 25 -17 0 -6 25 -36 56 -66 49 -49 59 -55 75 -45 10 7
32 12 49 12 63 0 136 48 112 72 -17 17 -15 38 3 38 8 0 15 5 15 11 0 7 -10 9
-25 5 -26 -7 -65 8 -65 23 0 5 -29 39 -65 77 -68 72 -75 84 -49 84 8 0 13 4
10 9 -3 4 -17 6 -31 4 -20 -4 -27 0 -35 21 -5 14 -17 26 -25 26 -9 0 -19 8
-22 18 -10 24 -53 65 -86 80 -32 14 -86 15 -140 3 -21 -5 -39 -5 -43 0 -7 12
-21 11 -29 -1z"/>
    <path d="M2360 17680 c-9 -6 -10 -10 -3 -10 6 0 15 5 18 10 8 12 4 12 -15 0z"/>
    <path d="M2265 17630 c-3 -6 1 -7 9 -4 18 7 21 14 7 14 -6 0 -13 -4 -16 -10z"/>
    <path d="M2169 17583 c-13 -15 -12 -15 9 -4 23 12 28 21 13 21 -5 0 -15 -7
-22 -17z"/>
    <path d="M2085 17539 c-16 -10 -25 -19 -19 -19 7 0 22 9 35 20 30 24 23 24
-16 -1z"/>
    <path d="M2005 17490 c-10 -11 -13 -20 -8 -20 13 0 38 29 31 35 -3 3 -13 -4
-23 -15z"/>
    <path d="M1920 17426 c0 -13 -23 -26 -58 -32 -18 -3 -27 -12 -20 -20 11 -10
86 16 92 32 9 23 7 34 -4 34 -5 0 -10 -6 -10 -14z"/>
    <path d="M54231 17388 c-55 -15 -620 -327 -642 -354 -6 -8 -9 -20 -6 -29 4 -8
-1 -19 -10 -24 -26 -14 51 -45 77 -31 10 6 37 10 59 10 47 0 62 6 201 81 58
31 135 72 172 92 41 22 68 32 70 25 3 -7 12 -9 23 -4 16 6 17 9 5 16 -18 11
-25 6 104 81 59 35 111 69 113 76 9 22 -16 41 -72 58 -29 8 -55 15 -57 14 -1
0 -18 -5 -37 -11z"/>
    <path d="M1845 17280 c-4 -6 8 -10 29 -10 19 0 38 5 41 10 4 6 -8 10 -29 10
-19 0 -38 -4 -41 -10z"/>
    <path d="M11040 17208 c0 -4 4 -8 9 -8 6 0 6 -12 -1 -30 -10 -29 -8 -33 41
-77 28 -25 51 -51 51 -57 0 -6 14 -17 30 -24 17 -8 30 -19 30 -26 0 -7 11 -19
25 -26 14 -7 25 -22 25 -32 0 -10 7 -18 15 -18 18 0 95 -72 95 -89 0 -6 4 -11
10 -11 5 0 25 -13 43 -30 28 -25 43 -30 93 -31 32 -2 70 1 84 5 38 13 71 47
64 68 -3 12 0 18 10 18 9 0 16 5 16 11 0 7 -10 9 -25 5 -19 -5 -33 1 -62 29
-20 19 -41 35 -45 35 -4 0 -8 7 -8 15 0 9 -8 19 -17 22 -23 8 -99 84 -95 95 1
4 -3 8 -8 8 -6 0 -35 24 -66 54 -89 89 -113 100 -221 101 -51 0 -93 -3 -93 -7z"/>
    <path d="M53670 17120 c0 -13 11 -13 30 0 12 8 11 10 -7 10 -13 0 -23 -4 -23
-10z"/>
    <path d="M53050 16754 c-8 -3 -37 -15 -64 -27 -35 -16 -50 -19 -53 -10 -3 7
-11 9 -19 6 -13 -5 -13 -7 -3 -14 16 -10 19 -7 -57 -47 -37 -19 -77 -32 -99
-32 -29 0 -38 -4 -42 -21 -4 -14 -49 -42 -157 -96 -83 -41 -158 -82 -167 -89
-21 -19 -13 -61 13 -67 11 -3 17 -10 13 -16 -3 -7 2 -11 14 -11 11 0 22 4 26
9 3 5 24 9 48 8 29 -1 62 8 107 30 36 17 115 54 175 82 61 29 118 57 129 62
12 7 21 7 25 1 4 -6 15 -6 31 0 19 7 21 11 11 18 -10 6 21 26 106 69 115 57
153 82 153 101 0 5 -15 18 -34 29 -32 20 -115 28 -156 15z"/>
    <path d="M11838 16493 c-33 -13 -38 -19 -38 -49 0 -26 4 -34 18 -34 19 0 42
-18 42 -32 0 -4 -7 -8 -15 -8 -8 0 -15 -4 -15 -10 0 -5 17 -10 39 -10 43 0 76
-25 47 -36 -29 -11 -17 -24 22 -24 28 0 44 -7 63 -27 14 -16 45 -44 69 -63 23
-19 50 -42 59 -50 9 -8 42 -34 72 -57 50 -39 62 -43 110 -43 69 0 139 31 139
60 0 11 -9 28 -21 38 -11 9 -33 29 -49 45 -15 15 -33 27 -39 27 -5 0 -38 27
-71 60 -33 33 -65 60 -69 60 -5 0 -21 14 -34 30 -14 17 -29 30 -32 30 -4 0
-31 22 -62 49 -71 64 -152 79 -235 44z"/>
    <path d="M33519 16496 c-2 -3 -54 -7 -114 -9 -147 -6 -263 -29 -410 -80 -116
-41 -266 -123 -265 -145 1 -25 34 -44 90 -53 l63 -10 126 61 c69 33 134 60
144 60 10 0 26 4 36 10 33 17 145 32 311 40 185 9 240 23 240 63 0 33 -58 58
-146 63 -39 2 -73 2 -75 0z"/>
    <path d="M34336 16336 c-53 -20 -74 -42 -60 -63 6 -9 69 -40 140 -68 71 -28
151 -66 176 -83 26 -18 50 -32 53 -32 12 0 65 -41 65 -51 0 -5 -7 -9 -15 -9
-8 0 -15 -5 -15 -11 0 -7 11 -9 30 -5 25 5 36 0 63 -26 18 -17 46 -37 64 -44
63 -27 169 -11 196 29 14 21 13 25 -12 52 -15 17 -39 38 -54 48 -15 9 -27 24
-27 32 0 8 -5 15 -11 15 -6 0 -30 12 -55 26 -34 20 -42 29 -34 39 14 17 -5 30
-42 27 -16 -1 -50 9 -77 23 -92 46 -255 106 -300 111 -27 2 -63 -2 -85 -10z"/>
    <path d="M51850 16162 c-14 -2 -77 -26 -140 -54 -67 -29 -129 -50 -150 -50
-42 0 -80 -16 -80 -35 0 -8 -30 -28 -67 -44 -38 -17 -105 -48 -150 -70 -45
-21 -89 -39 -98 -39 -9 0 -27 -12 -41 -26 -25 -24 -25 -26 -8 -45 16 -18 16
-19 -2 -19 -19 -1 -19 -1 0 -15 12 -9 24 -11 30 -6 6 5 40 9 76 8 58 0 79 6
200 60 74 33 146 64 160 68 24 8 59 24 290 132 58 28 111 57 119 67 13 15 12
20 -7 38 -21 21 -86 36 -132 30z"/>
    <path d="M34950 16120 c0 -5 5 -10 11 -10 5 0 7 5 4 10 -3 6 -8 10 -11 10 -2
0 -4 -4 -4 -10z"/>
    <path d="M34560 16100 c0 -5 12 -10 26 -10 14 0 23 4 19 10 -3 6 -15 10 -26
10 -10 0 -19 -4 -19 -10z"/>
    <path d="M32502 15927 c-52 -16 -77 -60 -90 -152 -13 -96 -6 -293 11 -313 36
-44 135 -54 206 -22 l44 20 -8 53 c-14 95 -12 161 6 262 10 55 18 106 18 113
1 18 -77 52 -119 51 -19 -1 -50 -6 -68 -12z"/>
    <path d="M12715 15824 c-86 -21 -100 -52 -46 -101 34 -30 35 -32 13 -33 -14 0
-21 -4 -16 -11 3 -6 15 -8 26 -6 26 7 56 -5 93 -38 16 -14 45 -36 64 -47 33
-21 34 -22 11 -30 -31 -11 -18 -22 24 -20 26 1 45 -7 77 -34 23 -19 51 -40 63
-46 12 -6 30 -19 42 -30 47 -42 91 -56 153 -49 92 11 138 54 94 87 -17 12 -17
14 2 28 l20 15 -20 2 c-11 1 -30 0 -41 0 -12 -1 -37 11 -55 26 -19 16 -54 42
-79 58 -40 26 -42 30 -22 33 38 6 24 22 -18 22 -29 0 -48 7 -64 23 -12 12 -41
34 -64 50 -41 26 -58 55 -26 43 10 -4 14 -1 11 6 -2 7 -16 12 -30 10 -15 -1
-45 7 -67 18 -41 21 -110 32 -145 24z"/>
    <path d="M35020 15650 c-30 -4 -63 -10 -72 -14 -19 -8 -54 -57 -50 -69 4 -13
-21 -100 -40 -142 -19 -42 -26 -54 -68 -120 -14 -22 -29 -48 -33 -57 -3 -10
-11 -18 -17 -18 -5 0 -10 -15 -10 -34 0 -31 4 -36 37 -47 55 -18 160 -5 190
23 31 29 98 127 107 156 4 12 12 22 17 22 5 0 9 7 9 15 0 8 9 30 20 50 26 46
54 158 46 187 -5 21 -57 60 -74 57 -4 -1 -32 -5 -62 -9z"/>
    <path d="M50563 15599 c-43 -5 -93 -19 -122 -34 -28 -14 -83 -36 -123 -49 -40
-13 -107 -40 -148 -59 -41 -19 -86 -37 -100 -41 -72 -21 -281 -110 -296 -127
-16 -18 -16 -20 0 -38 22 -24 95 -43 138 -35 36 7 193 66 333 125 50 21 115
47 145 57 92 33 267 107 284 121 9 8 14 21 11 29 -3 8 0 21 6 29 7 7 10 15 8
17 -11 10 -72 13 -136 5z"/>
    <path d="M13600 15151 c-50 -26 -50 -51 2 -90 71 -52 139 -97 208 -136 35 -21
71 -46 78 -56 7 -10 21 -19 31 -19 16 0 110 -54 121 -70 3 -4 23 -17 46 -28
35 -18 49 -19 108 -12 65 8 106 29 106 55 0 16 -59 65 -116 96 -49 26 -68 49
-40 49 9 0 16 5 16 10 0 6 -20 10 -44 10 -36 0 -57 8 -109 44 -36 24 -78 51
-93 59 -16 9 -38 24 -49 34 -34 32 -139 73 -186 73 -25 0 -60 -8 -79 -19z"/>
    <path d="M32665 15140 c-58 -5 -115 -31 -115 -52 0 -19 61 -138 71 -138 5 0 9
-9 9 -19 0 -10 7 -21 15 -25 20 -7 19 -26 -1 -26 -9 0 -14 -6 -12 -12 3 -7 15
-13 28 -13 15 0 28 -11 41 -34 10 -19 25 -39 34 -43 8 -5 15 -15 15 -22 0 -8
7 -16 15 -20 8 -3 15 -12 15 -19 0 -8 18 -27 40 -42 76 -53 230 -31 230 33 0
16 -8 32 -20 40 -11 7 -20 19 -20 27 0 8 -5 15 -10 15 -6 0 -15 11 -20 25 -5
14 -14 25 -20 25 -7 0 -9 8 -5 20 4 14 2 20 -8 20 -18 0 -45 38 -94 132 -8 15
-19 30 -24 33 -5 4 -7 10 -4 15 7 12 -34 54 -70 71 -21 10 -49 13 -90 9z"/>
    <path d="M13880 15120 c0 -5 5 -10 11 -10 5 0 7 5 4 10 -3 6 -8 10 -11 10 -2
0 -4 -4 -4 -10z"/>
    <path d="M49045 15038 c-81 -31 -231 -85 -295 -108 -310 -107 -356 -124 -379
-146 -20 -19 -22 -26 -12 -38 10 -12 9 -16 -5 -24 -13 -7 -14 -10 -2 -14 26
-11 203 9 243 27 22 10 60 23 85 30 46 13 146 47 280 95 78 29 123 44 253 90
44 15 83 33 88 41 18 28 9 50 -26 65 -55 22 -139 16 -230 -18z"/>
    <path d="M13710 14950 c0 -5 5 -10 11 -10 5 0 7 5 4 10 -3 6 -8 10 -11 10 -2
0 -4 -4 -4 -10z"/>
    <path d="M34395 14856 c-27 -14 -76 -48 -107 -75 -31 -27 -73 -59 -92 -71 -20
-12 -36 -25 -36 -30 0 -4 -37 -31 -82 -61 -134 -86 -200 -139 -193 -156 3 -9
-2 -21 -11 -28 -15 -10 -13 -13 14 -24 24 -10 39 -10 65 -2 19 7 47 9 61 5 30
-7 125 41 219 112 33 24 86 60 118 80 32 20 59 40 59 44 0 4 26 24 57 46 75
50 143 113 143 130 0 20 -56 45 -114 51 -41 4 -60 0 -101 -21z"/>
    <path d="M13840 14860 c0 -5 9 -10 20 -10 11 0 20 5 20 10 0 6 -9 10 -20 10
-11 0 -20 -4 -20 -10z"/>
    <path d="M14268 14858 c9 -9 15 -9 24 0 9 9 7 12 -12 12 -19 0 -21 -3 -12 -12z"/>
    <path d="M47650 14566 c-47 -13 -105 -31 -130 -39 -25 -8 -85 -27 -135 -42
-158 -48 -238 -73 -304 -94 -36 -12 -72 -21 -80 -21 -9 0 -40 -11 -68 -25 -59
-27 -69 -52 -30 -77 53 -36 132 -31 277 17 25 8 86 26 135 41 50 14 115 34
145 43 30 10 96 30 145 46 209 64 231 73 259 101 23 22 20 28 -19 47 -58 28
-103 29 -195 3z"/>
    <path d="M33947 14573 c-4 -3 -7 -11 -7 -17 0 -6 5 -5 12 2 6 6 9 14 7 17 -3
3 -9 2 -12 -2z"/>
    <path d="M14577 14531 c-10 -12 -9 -13 2 -6 11 7 13 1 8 -29 -6 -36 -5 -37 51
-65 31 -16 66 -36 77 -45 18 -14 18 -15 3 -16 -10 0 -18 -5 -18 -11 0 -7 11
-9 29 -6 22 5 53 -5 129 -43 97 -47 129 -70 98 -70 -9 0 -16 -4 -16 -9 0 -13
23 -20 51 -14 26 5 207 -70 221 -90 4 -8 15 -7 33 1 14 7 37 12 50 12 30 0 91
52 81 69 -4 6 -38 27 -76 46 -73 37 -87 49 -69 61 18 11 -11 24 -54 24 -35 0
-189 68 -202 90 -3 4 -51 32 -107 60 -98 50 -106 52 -190 54 -69 2 -91 -1
-101 -13z"/>
    <path d="M14970 14450 c0 -5 10 -10 23 -10 18 0 19 2 7 10 -19 13 -30 13 -30
0z"/>
    <path d="M33339 14409 c-8 -5 -36 -9 -62 -9 -49 0 -127 -31 -127 -51 0 -22 21
-48 55 -69 39 -24 45 -40 14 -40 -11 0 -17 -4 -14 -10 3 -5 23 -10 44 -10 38
0 71 -23 71 -48 0 -13 -287 -158 -445 -225 -121 -52 -169 -83 -160 -105 4 -9
9 -23 12 -29 3 -8 -3 -13 -13 -13 -17 -1 -17 -2 -3 -10 20 -12 190 3 233 20
22 8 31 8 37 -1 9 -15 30 -3 23 14 -2 7 79 54 220 125 210 105 266 126 266
102 0 -5 -5 -10 -11 -10 -5 0 -7 -5 -3 -12 5 -7 11 -5 21 7 7 11 13 13 13 7 0
-7 6 -12 13 -12 7 0 37 -17 67 -37 53 -36 58 -37 152 -38 95 -2 137 6 103 19
-9 3 -13 11 -10 16 15 24 -6 58 -50 81 -48 26 -54 34 -29 43 26 10 5 26 -34
26 -35 0 -63 13 -103 49 -10 9 -39 32 -64 51 -26 19 -60 46 -75 60 -15 14 -44
38 -64 54 -20 16 -36 35 -36 42 0 16 -24 24 -41 13z"/>
    <path d="M46280 14150 c-8 -5 -31 -10 -51 -10 -20 0 -70 -9 -112 -20 -168 -44
-226 -59 -312 -83 -49 -14 -101 -27 -115 -30 -61 -12 -302 -78 -320 -87 -31
-17 -26 -57 11 -75 46 -25 121 -20 254 16 66 17 136 35 155 40 61 14 260 66
398 104 108 30 136 34 148 24 12 -9 18 -9 27 0 9 9 9 14 -3 21 -11 7 -12 12
-4 20 13 13 7 50 -7 50 -5 0 -9 6 -9 14 0 23 -35 32 -60 16z"/>
    <path d="M15753 13951 c-36 -17 -43 -25 -43 -48 0 -26 8 -31 128 -82 70 -30
219 -95 332 -145 190 -84 210 -91 270 -91 81 0 123 22 118 62 -2 22 -14 31
-73 56 -248 104 -344 145 -452 197 -146 70 -213 82 -280 51z"/>
    <path d="M34226 13760 c-68 -9 -108 -39 -90 -68 6 -9 33 -30 60 -46 53 -31
355 -163 497 -216 60 -23 87 -38 87 -50 0 -17 36 -25 45 -9 4 5 22 9 41 9 37
0 86 18 119 43 l20 16 -20 19 c-11 10 -85 45 -165 77 -193 77 -294 126 -278
137 10 6 10 10 -2 18 -10 6 -17 5 -23 -5 -5 -10 -13 -12 -25 -5 -42 23 -192
90 -199 89 -4 -1 -34 -5 -67 -9z"/>
    <path d="M44597 13743 c-4 -3 -26 -9 -49 -13 -24 -4 -124 -26 -223 -49 -99
-23 -202 -46 -230 -51 -27 -6 -68 -14 -90 -19 -22 -5 -67 -14 -99 -21 -122
-24 -180 -64 -139 -96 21 -16 79 -34 111 -34 20 0 134 22 257 49 22 5 67 15
100 21 33 6 76 16 95 21 19 5 64 15 100 23 237 52 337 80 358 99 28 26 25 35
-18 59 -34 18 -158 26 -173 11z"/>
    <path d="M32225 13630 c-11 -5 -39 -9 -62 -9 -39 -1 -117 -26 -278 -92 -70
-28 -119 -46 -334 -121 -166 -57 -201 -78 -201 -117 0 -5 25 -16 55 -26 80
-25 98 -20 435 101 52 19 131 48 175 64 115 41 236 93 264 112 14 10 21 23 18
32 -4 9 1 20 11 25 14 8 11 12 -20 25 -21 9 -39 16 -40 15 -2 0 -12 -4 -23 -9z"/>
    <path d="M16993 13420 c-19 -11 -33 -28 -33 -39 0 -24 33 -40 267 -127 140
-52 183 -72 187 -87 4 -17 8 -18 20 -8 16 14 77 1 203 -44 40 -14 92 -25 115
-25 73 1 155 57 118 80 -26 17 -192 79 -412 155 -117 40 -239 82 -270 94 -74
27 -152 27 -195 1z"/>
    <path d="M43110 13420 c-8 -5 -33 -10 -55 -10 -22 0 -76 -7 -120 -15 -44 -9
-109 -20 -145 -26 -36 -6 -85 -15 -110 -19 -124 -24 -335 -62 -415 -76 -126
-21 -173 -57 -126 -95 47 -38 130 -34 451 26 74 14 151 28 170 31 19 3 53 9
75 14 22 5 94 19 160 31 66 12 138 30 161 41 36 17 40 22 36 48 -3 21 -10 30
-23 30 -11 0 -19 7 -19 15 0 17 -18 19 -40 5z"/>
    <path d="M35487 13258 c-41 -18 -48 -25 -45 -46 3 -30 52 -52 157 -73 40 -8
73 -21 89 -36 28 -26 34 -27 50 -11 16 16 122 -8 122 -27 0 -19 38 -29 55 -15
11 9 27 9 70 0 30 -6 55 -14 55 -18 0 -4 5 -14 10 -22 8 -13 11 -13 22 1 12
15 19 15 73 2 33 -8 106 -16 162 -18 56 -2 106 -6 111 -9 4 -2 14 0 22 5 11 8
12 12 3 15 -9 4 -9 13 -2 30 5 14 9 27 9 29 0 11 -87 45 -113 45 -29 0 -117
18 -229 46 -32 8 -67 14 -79 14 -11 0 -53 9 -92 19 -208 56 -368 92 -396 91
-3 -1 -28 -10 -54 -22z"/>
    <path d="M30745 13130 c-44 -4 -105 -14 -135 -23 -30 -9 -80 -23 -110 -31 -30
-8 -77 -22 -105 -30 -93 -27 -190 -54 -255 -70 -36 -10 -86 -23 -111 -31 -26
-8 -55 -15 -65 -15 -30 -1 -104 -37 -110 -55 -4 -9 2 -25 11 -35 16 -18 17
-20 2 -20 -10 0 -17 -4 -17 -9 0 -9 30 -8 163 4 26 2 73 11 105 20 70 20 136
38 222 60 92 24 193 52 275 76 224 65 250 78 241 114 -4 16 -1 25 11 29 15 6
15 8 3 16 -8 6 -22 9 -30 8 -8 -1 -51 -4 -95 -8z"/>
    <path d="M41300 13120 c-30 -4 -165 -22 -300 -40 -134 -17 -247 -33 -250 -35
-3 -2 -43 -6 -90 -9 -101 -7 -180 -28 -205 -56 -17 -19 -17 -21 -1 -38 17 -20
113 -46 137 -38 8 3 82 13 164 22 83 9 186 20 230 26 44 5 112 13 150 18 39 5
95 13 125 19 30 5 88 15 128 21 70 10 152 42 152 58 0 4 -9 18 -19 32 -17 22
-28 25 -93 26 -40 1 -98 -1 -128 -6z"/>
    <path d="M18394 12980 c-17 -6 -38 -18 -47 -28 -20 -22 -12 -58 14 -65 10 -3
19 -12 19 -20 0 -21 29 -30 36 -12 7 17 17 15 149 -25 50 -15 105 -31 123 -34
74 -13 142 -38 142 -52 0 -15 26 -19 34 -5 6 10 26 6 151 -29 44 -12 123 -25
175 -29 81 -7 100 -6 127 9 l32 17 -26 12 c-25 11 -25 12 -8 31 17 19 17 20
-3 20 -30 0 -72 21 -72 36 0 19 -33 27 -42 10 -7 -12 -18 -11 -79 4 -40 11
-80 28 -90 39 -21 22 -39 27 -39 11 0 -16 -30 -12 -121 16 -46 14 -111 32
-144 39 -33 7 -85 22 -115 33 -65 24 -172 35 -216 22z"/>
    <path d="M37104 12981 c-49 -8 -94 -35 -94 -57 0 -20 71 -51 137 -60 29 -3 57
-12 63 -19 9 -11 16 -10 40 1 25 13 33 13 57 0 20 -10 34 -11 47 -4 9 5 29 7
44 3 15 -4 61 -9 102 -11 50 -3 77 -9 82 -19 7 -12 13 -12 42 0 18 8 36 12 39
9 3 -3 54 -8 114 -10 241 -10 312 -10 334 2 l22 12 -23 12 -24 13 30 23 29 24
-33 0 c-18 0 -42 5 -53 11 -11 5 -61 12 -112 15 -152 7 -636 44 -767 58 -19 2
-54 1 -76 -3z"/>
    <path d="M39545 12939 c-55 -4 -201 -11 -325 -15 -428 -13 -450 -15 -485 -51
-50 -50 38 -88 182 -79 48 3 178 8 288 11 236 6 341 12 490 26 104 10 111 12
123 37 18 39 15 48 -25 65 -41 16 -90 17 -248 6z"/>
    <path d="M29190 12739 c-14 -6 -33 -8 -44 -5 -11 3 -26 1 -35 -3 -9 -5 -32
-11 -51 -14 -19 -3 -145 -28 -280 -55 -135 -27 -290 -57 -345 -67 -111 -19
-172 -40 -185 -65 -12 -22 -2 -35 44 -54 51 -21 85 -20 229 8 67 13 167 32
222 41 55 9 114 21 131 26 16 5 66 16 110 24 188 35 280 60 301 81 21 20 15
50 -12 62 -14 6 -25 16 -25 22 0 12 -27 12 -60 -1z"/>
    <path d="M19898 12618 c-48 -13 -71 -38 -62 -72 5 -20 14 -27 43 -31 20 -3 63
-12 96 -20 33 -8 84 -17 113 -21 38 -4 55 -11 63 -26 8 -15 14 -17 22 -9 12
12 65 15 91 5 9 -3 16 -12 16 -20 0 -17 14 -18 38 -3 14 9 31 8 68 0 27 -6 67
-13 89 -16 22 -3 60 -9 85 -15 115 -25 169 -30 211 -21 43 10 90 38 97 59 7
22 -80 54 -198 72 -30 5 -84 14 -120 20 -36 6 -93 15 -128 20 -34 4 -69 14
-77 20 -8 7 -21 10 -28 7 -12 -5 -50 2 -252 42 -78 16 -127 18 -167 9z"/>
    <path d="M27455 12438 c-38 -4 -101 -12 -140 -17 -38 -5 -151 -20 -250 -34
-99 -13 -189 -25 -200 -25 -65 -3 -273 -35 -278 -43 -1 -2 -7 -14 -14 -25 -10
-18 -9 -25 7 -39 25 -23 86 -36 140 -29 25 3 68 7 95 9 109 8 557 65 740 94
49 7 105 37 105 54 0 26 -40 57 -75 57 -18 0 -39 2 -47 4 -7 2 -44 -1 -83 -6z"/>
    <path d="M21427 12358 c-9 -6 -8 -10 2 -17 7 -5 10 -14 7 -20 -10 -16 2 -48
22 -56 34 -14 194 -35 379 -49 35 -2 66 -7 70 -9 5 -3 62 -8 128 -12 87 -4
123 -10 131 -21 14 -17 28 -18 54 -2 15 9 27 10 49 2 46 -18 198 -1 222 25 29
31 23 50 -23 71 -23 10 -45 17 -49 15 -7 -5 -400 32 -437 40 -13 3 -65 8 -115
11 -50 3 -96 8 -101 12 -12 8 -44 10 -209 14 -66 2 -124 0 -130 -4z"/>
    <path d="M25625 12254 c-16 -2 -178 -11 -360 -19 -181 -8 -347 -20 -368 -26
-49 -13 -71 -54 -42 -75 41 -30 88 -34 320 -23 508 22 695 37 734 57 48 25 53
56 12 76 -23 12 -58 16 -148 14 -65 0 -131 -3 -148 -4z"/>
    <path d="M23236 12229 c-85 -9 -119 -28 -114 -63 6 -41 52 -54 218 -60 374
-14 767 -18 806 -7 85 23 95 73 19 99 -34 11 -307 21 -693 24 -62 0 -115 5
-118 9 -6 10 -5 10 -118 -2z"/>
  </g>
</svg>
