<?xml version="1.0" encoding="iso-8859-1"?>
<!-- Uploaded to: SVG Repo, www.svgrepo.com, Generator: SVG Repo Mixer Tools -->
<svg fill="#000000" height="800px" width="800px" version="1.1" id="Layer_1" xmlns="http://www.w3.org/2000/svg" xmlns:xlink="http://www.w3.org/1999/xlink" 
	 viewBox="0 0 512 512" xml:space="preserve">
<g>
	<g>
		<path d="M490.612,168.707c-11.807-12.746-27.227-21.227-44.075-24.382V0H284.177l1.185,10.079
			c0.201,1.711,0.295,3.267,0.295,4.897c0,34.402-27.987,62.391-62.389,62.391c-34.402,0-62.391-27.989-62.391-62.391
			c0-1.627,0.095-3.184,0.296-4.897L162.359,0H0v162.359l10.079-1.185c1.714-0.202,3.271-0.296,4.897-0.296
			c34.402,0,62.391,27.989,62.391,62.391c0,34.402-27.989,62.389-62.391,62.389c-1.63,0-3.186-0.094-4.897-0.295L0,284.177v162.359
			h144.325c3.155,16.85,11.637,32.269,24.382,44.075C183.597,504.404,202.973,512,223.268,512c20.295,0,39.671-7.595,54.561-21.388
			c12.745-11.807,21.227-27.227,24.382-44.075h144.325V302.211c16.85-3.155,32.269-11.637,44.075-24.382
			C504.404,262.939,512,243.562,512,223.268C512,202.975,504.404,183.597,490.612,168.707z M436.782,285.33l-8.294,0.674v142.483
			H286.005l-0.674,8.294c-2.602,32.058-29.863,57.169-62.062,57.169c-32.2,0-59.461-25.111-62.062-57.169l-0.674-8.294H18.049
			V303.649c42.937-1.621,77.366-37.055,77.366-80.381c0-43.326-34.429-78.76-77.366-80.381V18.049h124.838
			c1.621,42.937,37.055,77.366,80.381,77.366c43.326,0,78.76-34.429,80.381-77.366h124.839v142.483l8.294,0.674
			c32.058,2.602,57.169,29.862,57.169,62.062C493.952,255.467,468.84,282.727,436.782,285.33z"/>
	</g>
</g>
</svg>